<svg width="24" height="24" viewBox="0 0 24 24" fill="none" xmlns="http://www.w3.org/2000/svg">
<g opacity="0.4">
<path d="M11.9612 16.5168V13.8888" stroke="#A8ADAA" stroke-width="1.5" stroke-linecap="round" stroke-linejoin="round"/>
<path d="M21.0895 11.4776L21.0605 11.4986C18.6385 12.9906 15.4405 13.8916 11.9565 13.8916C8.47252 13.8916 5.28352 12.9906 2.86252 11.4986L2.83252 11.4776" stroke="#A8ADAA" stroke-width="1.5" stroke-linecap="round" stroke-linejoin="round"/>
</g>
<path fill-rule="evenodd" clip-rule="evenodd" d="M2.75024 13.3507C2.75024 7.19867 5.05324 5.14767 11.9612 5.14767C18.8702 5.14767 21.1722 7.19867 21.1722 13.3507C21.1722 19.5027 18.8702 21.5537 11.9612 21.5537C5.05324 21.5537 2.75024 19.5027 2.75024 13.3507Z" stroke="#A8ADAA" stroke-width="1.5" stroke-linecap="round" stroke-linejoin="round"/>
<path opacity="0.4" d="M15.2237 5.36929V4.73929C15.2237 3.47529 14.3007 2.45029 13.1637 2.45029H10.7587C9.62173 2.45029 8.69873 3.47529 8.69873 4.73929V5.36929" stroke="#A8ADAA" stroke-width="1.5" stroke-linecap="round" stroke-linejoin="round"/>
</svg>
