<svg width="903" height="312" viewBox="0 0 903 312" fill="none" xmlns="http://www.w3.org/2000/svg">
<path d="M143.041 78.1826C118.41 53.5517 87.6888 67.9197 75.4069 78.1826L39.0662 41.8419C48.4879 33.4297 72.6814 16.5044 94.082 16.1006C115.483 15.6968 126.553 16.6054 129.413 17.1101C148.593 19.6336 179.987 34.7756 196.543 65.0595C213.098 95.3434 211.853 121.085 209.161 130.17C207.815 143.293 198.461 174.788 171.811 195.785C177.194 202.178 187.962 219.608 187.962 238.183V295.722H137.994V240.706C137.994 225.177 121.628 218.902 111.376 217.308C110.393 217.227 109.504 217.117 108.719 216.984C99.4658 217.825 80.959 223.747 80.959 240.706V295.722H32V233.135C32 208.101 53.8717 187.373 64.8076 180.138C69.1819 176.101 84.5931 168.025 111.243 168.025C137.893 168.025 152.295 147.836 156.164 137.741C162.052 128.151 167.672 102.813 143.041 78.1826Z" fill="url(#paint0_linear_198_4253)"/>
<path d="M264.623 215.861V98.9915H315.211C325.673 98.9915 334.689 100.717 342.258 104.167C349.827 107.506 355.67 112.348 359.788 118.692C363.907 125.037 365.966 132.605 365.966 141.398C365.966 150.08 363.907 157.593 359.788 163.938C355.67 170.171 349.827 174.957 342.258 178.296C334.689 181.635 325.673 183.305 315.211 183.305H279.649L291.67 171.451V215.861H264.623ZM338.919 215.861L309.701 173.454H338.585L368.136 215.861H338.919ZM291.67 174.456L279.649 161.767H313.708C322.056 161.767 328.289 159.986 332.407 156.425C336.526 152.752 338.585 147.743 338.585 141.398C338.585 134.943 336.526 129.934 332.407 126.372C328.289 122.811 322.056 121.03 313.708 121.03H279.649L291.67 108.174V174.456ZM436.5 215.861V198.331L434.83 194.491V163.103C434.83 157.538 433.105 153.197 429.654 150.08C426.315 146.964 421.14 145.405 414.127 145.405C409.341 145.405 404.611 146.185 399.936 147.743C395.373 149.19 391.477 151.193 388.249 153.753L378.9 135.555C383.797 132.105 389.696 129.433 396.597 127.541C403.498 125.649 410.51 124.703 417.633 124.703C431.324 124.703 441.953 127.931 449.522 134.386C457.091 140.842 460.875 150.915 460.875 164.605V215.861H436.5ZM409.119 217.197C402.106 217.197 396.096 216.028 391.087 213.691C386.079 211.242 382.239 207.958 379.567 203.84C376.896 199.722 375.56 195.103 375.56 189.983C375.56 184.64 376.84 179.965 379.4 175.958C382.072 171.952 386.246 168.835 391.922 166.609C397.599 164.272 405 163.103 414.127 163.103H438.002V178.296H416.966C410.844 178.296 406.614 179.298 404.277 181.301C402.051 183.305 400.938 185.809 400.938 188.814C400.938 192.153 402.218 194.825 404.778 196.828C407.449 198.72 411.067 199.666 415.63 199.666C419.971 199.666 423.867 198.665 427.317 196.661C430.767 194.546 433.272 191.485 434.83 187.478L438.837 199.499C436.945 205.287 433.494 209.684 428.486 212.689C423.477 215.694 417.021 217.197 409.119 217.197ZM520.327 217.197C511.868 217.197 504.244 215.305 497.454 211.52C490.665 207.625 485.267 202.226 481.26 195.325C477.364 188.425 475.416 180.299 475.416 170.95C475.416 161.489 477.364 153.308 481.26 146.407C485.267 139.506 490.665 134.164 497.454 130.379C504.244 126.595 511.868 124.703 520.327 124.703C527.896 124.703 534.519 126.372 540.195 129.712C545.872 133.051 550.268 138.115 553.385 144.905C556.501 151.694 558.06 160.376 558.06 170.95C558.06 181.412 556.557 190.094 553.552 196.995C550.547 203.785 546.206 208.849 540.529 212.188C534.964 215.527 528.23 217.197 520.327 217.197ZM524.835 195.826C529.065 195.826 532.905 194.825 536.355 192.821C539.806 190.818 542.533 187.979 544.536 184.306C546.651 180.522 547.708 176.07 547.708 170.95C547.708 165.718 546.651 161.266 544.536 157.593C542.533 153.92 539.806 151.082 536.355 149.078C532.905 147.075 529.065 146.073 524.835 146.073C520.494 146.073 516.599 147.075 513.148 149.078C509.698 151.082 506.915 153.92 504.8 157.593C502.797 161.266 501.795 165.718 501.795 170.95C501.795 176.07 502.797 180.522 504.8 184.306C506.915 187.979 509.698 190.818 513.148 192.821C516.599 194.825 520.494 195.826 524.835 195.826ZM548.376 215.861V197.496L548.877 170.783L547.207 144.237V91.9793H573.253V215.861H548.376ZM594.019 215.861V126.038H620.064V215.861H594.019ZM607.042 113.517C602.256 113.517 598.36 112.125 595.355 109.343C592.35 106.56 590.847 103.11 590.847 98.9915C590.847 94.8732 592.35 91.4228 595.355 88.6402C598.36 85.8576 602.256 84.4663 607.042 84.4663C611.828 84.4663 615.723 85.8019 618.729 88.4733C621.734 91.0333 623.237 94.3724 623.237 98.4906C623.237 102.832 621.734 106.449 618.729 109.343C615.835 112.125 611.939 113.517 607.042 113.517ZM671.117 217.197C663.436 217.197 656.035 216.306 648.911 214.525C641.899 212.633 636.334 210.296 632.216 207.513L640.897 188.814C645.016 191.374 649.857 193.489 655.423 195.158C661.099 196.717 666.664 197.496 672.118 197.496C678.129 197.496 682.358 196.772 684.807 195.325C687.367 193.878 688.647 191.875 688.647 189.315C688.647 187.2 687.645 185.642 685.642 184.64C683.75 183.527 681.19 182.692 677.962 182.136C674.734 181.579 671.172 181.023 667.276 180.466C663.492 179.91 659.652 179.186 655.756 178.296C651.861 177.294 648.299 175.847 645.071 173.955C641.843 172.063 639.228 169.503 637.224 166.275C635.332 163.047 634.386 158.873 634.386 153.753C634.386 148.077 636 143.068 639.228 138.727C642.567 134.386 647.353 130.992 653.586 128.543C659.819 125.983 667.276 124.703 675.958 124.703C682.08 124.703 688.313 125.371 694.657 126.706C701.002 128.042 706.289 129.99 710.518 132.55L701.836 151.082C697.496 148.522 693.099 146.797 688.647 145.906C684.306 144.905 680.076 144.404 675.958 144.404C670.17 144.404 665.941 145.183 663.27 146.741C660.598 148.299 659.263 150.303 659.263 152.752C659.263 154.978 660.209 156.647 662.101 157.76C664.104 158.873 666.72 159.764 669.948 160.432C673.176 161.099 676.682 161.712 680.466 162.268C684.362 162.713 688.257 163.437 692.153 164.438C696.049 165.44 699.555 166.887 702.671 168.779C705.899 170.56 708.515 173.065 710.518 176.292C712.522 179.409 713.523 183.527 713.523 188.647C713.523 194.212 711.854 199.165 708.515 203.506C705.176 207.736 700.334 211.075 693.99 213.524C687.757 215.972 680.132 217.197 671.117 217.197ZM780.849 124.703C787.972 124.703 794.317 126.15 799.882 129.044C805.558 131.826 810.01 136.167 813.238 142.066C816.466 147.854 818.08 155.312 818.08 164.438V215.861H792.035V168.445C792.035 161.211 790.421 155.868 787.193 152.418C784.077 148.967 779.624 147.242 773.837 147.242C769.718 147.242 765.99 148.132 762.65 149.913C759.423 151.583 756.863 154.198 754.97 157.76C753.19 161.322 752.299 165.885 752.299 171.451V215.861H726.254V91.9793H752.299V150.915L746.456 143.402C749.683 137.392 754.303 132.772 760.313 129.545C766.323 126.317 773.169 124.703 780.849 124.703ZM848.2 217.197C843.748 217.197 839.908 215.694 836.68 212.689C833.563 209.572 832.005 205.621 832.005 200.835C832.005 196.049 833.563 192.209 836.68 189.315C839.908 186.31 843.748 184.807 848.2 184.807C852.763 184.807 856.603 186.31 859.72 189.315C862.837 192.209 864.395 196.049 864.395 200.835C864.395 205.621 862.837 209.572 859.72 212.689C856.603 215.694 852.763 217.197 848.2 217.197Z" fill="#CFD9CD"/>
<defs>
<linearGradient id="paint0_linear_198_4253" x1="121.842" y1="296.227" x2="121.842" y2="15.5958" gradientUnits="userSpaceOnUse">
<stop stop-color="#D7E1D5" stop-opacity="0"/>
<stop offset="0.133626" stop-color="#D5DFD3" stop-opacity="0.2"/>
<stop offset="0.509233" stop-color="#CFD9CD" stop-opacity="0.96"/>
<stop offset="0.988331" stop-color="#E3ECE1" stop-opacity="0.05"/>
</linearGradient>
</defs>
</svg>
