<?xml version="1.0" encoding="utf-8"?>
<!-- Generator: Adobe Illustrator 25.4.6, SVG Export Plug-In . SVG Version: 6.00 Build 0)  -->
<svg version="1.1" id="Calque_1" xmlns="http://www.w3.org/2000/svg" xmlns:xlink="http://www.w3.org/1999/xlink" x="0px" y="0px"
	 viewBox="0 0 654 98.8" style="enable-background:new 0 0 654 98.8;" xml:space="preserve">
<g>
	<path d="M82.5,25.2l-22-12.7c-0.5-0.3-1.1-0.1-1.4,0.4C59,13,59,13.2,59,13.4v14.8c0,0.4,0.2,0.7,0.5,0.9l8.8,5
		c0.3,0.2,0.5,0.5,0.5,0.9l-0.2,29.2c0,0.4-0.2,0.7-0.5,0.9l-16.9,9.5c-0.5,0.3-1.1,0.1-1.4-0.4c-0.1-0.1-0.1-0.3-0.1-0.5V58
		c0-0.3-0.2-0.7-0.5-0.9L46,55.2c-0.3-0.2-0.7-0.2-1,0l-10.8,6.1c-0.3,0.2-0.5,0.5-0.5,0.9v30.1c0,0.4,0.2,0.7,0.5,0.9l6.8,3.9
		c0.3,0.2,0.7,0.2,1,0l40.5-23.4c0.3-0.2,0.5-0.5,0.5-0.9V26.1C83,25.7,82.8,25.4,82.5,25.2z"/>
	<path d="M34.2,42.1l2.9,1.7c0.3,0.2,0.7,0.2,1,0L49,37.4c0.3-0.2,0.5-0.5,0.5-0.9v-4V6.8c0-0.4-0.2-0.7-0.5-0.9l-7-4.1
		c-0.3-0.2-0.7-0.2-1,0L0.5,25.2C0.2,25.4,0,25.8,0,26.1v46.7c0,0.4,0.2,0.7,0.5,0.9l22.3,12.9c0.5,0.3,1.1,0.1,1.4-0.4
		c0.1-0.2,0.1-0.3,0.1-0.5V70.9c0-0.4-0.2-0.7-0.5-0.9L15,64.9c-0.3-0.2-0.5-0.5-0.5-0.9l0.2-28.8c0-0.4,0.2-0.7,0.5-0.9l16.9-9.9
		c0.5-0.3,1.1-0.1,1.4,0.4c0.1,0.2,0.1,0.3,0.1,0.5l0.1,15.9C33.7,41.6,33.9,41.9,34.2,42.1z"/>
	<path d="M256.5,80.2V18.6h15.6v61.6H256.5z"/>
	<path d="M216.2,32.1c9.6,0,17.3,7.8,17.3,17.3s-7.8,17.3-17.3,17.3c-9.6,0-17.3-7.8-17.3-17.3l0,0
		C198.9,39.8,206.6,32.1,216.2,32.1 M216.2,17.4c-17.7,0-32,14.3-32,32s14.3,32,32,32s32-14.3,32-32S233.9,17.4,216.2,17.4z"/>
	<polygon points="327.4,18.6 327.4,64.7 326.2,64.7 307.7,18.6 282.9,18.6 282.9,34.2 282.9,80.3 297.5,80.3 297.5,34.2 298.5,34.2 
		317.2,80.3 317.3,80.2 317.2,80.3 342,80.3 342,64.7 342,18.6 	"/>
	<path d="M146.8,66.8c-9.6,0-17.4-7.7-17.4-17.3s7.7-17.4,17.3-17.4c7.1,0,13.5,4.3,16.2,10.8H178c-3.5-17.4-20.5-28.6-37.9-25.1
		c-17.4,3.5-28.6,20.5-25.1,37.9c3.5,17.4,20.5,28.6,37.9,25.1c12.8-2.6,22.7-12.6,25.1-25.4H163C160.5,62.2,154,66.8,146.8,66.8z"
		/>
	<polygon points="408.1,80.2 392.5,80.2 392.5,55.9 368.4,55.9 368.4,80.2 352.8,80.2 352.8,18.6 368.4,18.6 368.4,42.5 392.5,42.5 
		392.5,18.6 408.1,18.6 	"/>
	<path d="M448.6,17.5c-18.2,0-33,14.1-33,32s14.7,31.9,33,31.9s32.9-13.9,32.9-31.9S466.7,17.5,448.6,17.5z M448.6,67.4
		c-9.6,0-17.2-7.8-17.2-18s7.6-18,17.2-18s17.2,7.9,17.2,18S458.2,67.4,448.6,67.4z"/>
	<path d="M544.2,52.5c0,17.7-11.1,28.9-27.6,28.9c-17,0-28.3-11.2-28.3-28.9V18.6h15.7V52c0,9.3,5,14.8,12.6,14.8
		c7.1,0,12-5.5,12-14.8V18.6h15.6L544.2,52.5z"/>
	<path d="M600.1,35.1l-15.2,3.1c-1.3-6.2-5.5-8-9.2-8s-6.6,1.9-6.6,5.3c0,2.4,1.3,4,4,4.8l12,3.8c10.1,3.3,15.6,8,15.6,17.6
		c0,13.8-12.1,19.7-24.2,19.7c-13.4,0-24.2-7-25.8-18.8l16-3.2c1.3,6.1,4.9,8.7,10.3,8.7c4.5,0,7.3-2.1,7.3-5.3c0-2.4-1.3-4.1-4.7-5
		l-11.4-3.3c-9.3-2.7-15.6-7.4-15.6-17.4c0-12.6,9.9-19.4,23.3-19.4C588.6,17.5,598.1,23.6,600.1,35.1z"/>
	<polygon points="654,80.2 608.1,80.2 608.1,18.6 653.5,18.6 653.5,32 623.6,32 623.6,43.2 651.4,43.2 651.4,55.7 623.6,55.7 
		623.6,66.8 654,66.8 	"/>
</g>
</svg>
