<svg width="112" height="48" viewBox="0 0 112 48" fill="none" xmlns="http://www.w3.org/2000/svg">
<path d="M34.4607 31.2271L34.4598 31.2265C32.5747 29.8913 31.4575 27.5076 31.2819 24.4169C31.1361 21.8498 31.6637 19.8931 32.8997 18.3019C33.9852 16.9116 35.4059 16.09 37.0748 15.5986C39.3543 14.9473 41.8015 14.9055 44.1321 15.3842C44.5504 15.4701 44.977 15.281 45.1942 14.9135C45.4114 14.5459 45.3714 14.081 45.0945 13.756C42.8464 11.1179 39.879 9.78763 36.6891 9.11295L36.6886 9.11286C32.9516 8.32424 29.1932 8.43863 25.491 9.50099L25.4903 9.5012C22.707 10.3022 20.1606 11.7487 18.2086 14.2414L18.2079 14.2424C15.9628 17.1166 15.1169 20.5694 15.3512 24.7106C15.631 29.6541 17.4651 33.9205 20.9818 36.4035L20.9825 36.404C23.2332 37.9904 25.7207 38.7594 28.2644 39.118C32.3665 39.7 36.4594 39.4529 40.4166 37.6962C42.225 36.8991 43.8099 35.7676 45.098 34.2392C45.375 33.9105 45.411 33.4416 45.1874 33.0745C44.9638 32.7075 44.5306 32.5243 44.1115 32.6197C42.3681 33.0163 40.5943 33.0698 38.7574 32.8106L38.7541 32.8102C37.1683 32.5918 35.7262 32.1254 34.4607 31.2271ZM1 24C1 11.2707 11.0253 1 23.3333 1H88.6667C100.975 1 111 11.2707 111 24C111 36.7293 100.975 47 88.6667 47H23.3333C11.0253 47 1 36.7293 1 24Z" stroke="white" stroke-width="2" stroke-linejoin="round"/>
</svg>
