<svg width="800" height="664" viewBox="0 0 800 664" fill="none" xmlns="http://www.w3.org/2000/svg">
<g clip-path="url(#clip0_346_9734)">
<path d="M107.123 14.2694L119.997 0L118.911 19.2326L138.143 18.302L123.874 31.1754L138.143 44.0488L118.911 43.1183L119.997 62.1957L107.123 47.9264L94.0946 62.1957L95.1804 43.1183L75.9478 44.0488L90.2171 31.1754L75.9478 18.302L95.1804 19.2326L94.0946 0L107.123 14.2694Z" stroke="url(#paint0_linear_346_9734)" stroke-width="2" stroke-miterlimit="10"/>
<path d="M674.33 43.7386L694.648 21.2489L693.097 51.6488L723.652 50.0978L701.007 70.4161L723.652 90.8895L693.097 89.3385L694.648 119.738L674.33 97.2487L653.856 119.738L655.407 89.3385L625.007 90.8895L647.497 70.4161L625.007 50.0978L655.407 51.6488L653.856 21.2489L674.33 43.7386Z" stroke="url(#paint1_linear_346_9734)" stroke-width="2" stroke-miterlimit="10"/>
<path d="M249.041 599.623L266.257 580.545L265.017 606.292L290.919 605.051L271.686 622.423L290.919 639.639L265.017 638.398L266.257 664.3L249.041 645.067L231.67 664.3L232.911 638.398L207.164 639.639L226.241 622.423L207.164 605.051L232.911 606.292L231.67 580.545L249.041 599.623Z" stroke="url(#paint2_linear_346_9734)" stroke-width="2" stroke-miterlimit="10"/>
<path d="M219.727 121.134C247.18 89.9589 308.755 125.012 318.061 118.963C327.367 112.914 302.241 56.1467 343.188 44.359C396.543 29.0039 493.326 92.2854 584.526 224.432C683.946 368.521 674.33 494.929 674.33 494.929C674.33 494.929 541.873 500.203 381.808 387.909C240.821 288.954 180.952 165.028 219.727 121.134Z" stroke="url(#paint3_linear_346_9734)" stroke-width="2" stroke-miterlimit="10"/>
<path d="M316.045 181.159C333.572 161.306 370.331 185.812 376.224 181.934C381.963 178.057 368.469 139.902 394.371 132.457C428.183 122.84 498.444 168.13 547.457 246.612C606.24 340.758 599.416 424.048 599.416 424.048C599.416 424.048 520.314 421.411 418.877 350.374C329.539 287.558 291.539 208.922 316.045 181.159Z" stroke="url(#paint4_linear_346_9734)" stroke-width="2" stroke-miterlimit="10"/>
<path d="M313.253 227.534C319.147 229.395 323.645 230.791 325.351 229.705" stroke="url(#paint5_linear_346_9734)" stroke-width="2" stroke-miterlimit="10"/>
<path d="M374.984 183.02C411.277 195.273 459.979 235.599 496.583 294.383C524.347 338.897 537.53 380.929 543.734 412.88" stroke="url(#paint6_linear_346_9734)" stroke-width="2" stroke-miterlimit="10"/>
<path d="M571.032 592.023C571.032 592.023 438.575 597.141 278.666 485.003C137.678 386.048 77.8089 261.967 116.584 218.073" stroke="url(#paint7_linear_346_9734)" stroke-width="2" stroke-miterlimit="10"/>
<path d="M620.82 545.182C620.82 545.182 488.363 550.301 328.453 438.162C187.466 339.207 127.597 215.281 166.372 171.232" stroke="url(#paint8_linear_346_9734)" stroke-width="2" stroke-miterlimit="10"/>
<path d="M322.559 232.342C359.008 244.75 407.555 284.921 444.314 343.705C451.604 355.338 457.808 366.97 463.236 378.138" stroke="url(#paint9_linear_346_9734)" stroke-width="2" stroke-miterlimit="10"/>
<path d="M116.584 218.073L219.727 121.134" stroke="url(#paint10_linear_346_9734)" stroke-width="2" stroke-miterlimit="10"/>
<path d="M674.33 494.929L599.416 424.048" stroke="url(#paint11_linear_346_9734)" stroke-width="2" stroke-miterlimit="10"/>
<path d="M571.032 592.023L674.33 494.929" stroke="url(#paint12_linear_346_9734)" stroke-width="2" stroke-miterlimit="10"/>
<path d="M318.061 118.963L376.224 181.934L316.821 237.771" stroke="url(#paint13_linear_346_9734)" stroke-width="2" stroke-miterlimit="10"/>
<path d="M249.041 462.823L391.269 329.125" stroke="url(#paint14_linear_346_9734)" stroke-width="2" stroke-miterlimit="10"/>
<path d="M332.486 519.125L435.628 422.187L439.971 364.334" stroke="url(#paint15_linear_346_9734)" stroke-width="2" stroke-miterlimit="10"/>
<path d="M484.33 580.545L587.628 483.452L538.15 411.019" stroke="url(#paint16_linear_346_9734)" stroke-width="2" stroke-miterlimit="10"/>
<path d="M161.409 376.742L264.241 279.958L341.327 277.942" stroke="url(#paint17_linear_346_9734)" stroke-width="2" stroke-miterlimit="10"/>
<path d="M107.123 273.289L210.731 175.73L310.772 219.158" stroke="url(#paint18_linear_346_9734)" stroke-width="2" stroke-miterlimit="10"/>
<path d="M329.694 51.6487L268.429 109.191" stroke="url(#paint19_linear_346_9734)" stroke-width="2" stroke-miterlimit="10"/>
<path d="M411.277 55.8365L423.53 134.473L377.775 177.436" stroke="url(#paint20_linear_346_9734)" stroke-width="2" stroke-miterlimit="10"/>
<path d="M509.302 131.371L490.224 175.73L386.461 273.444" stroke="url(#paint21_linear_346_9734)" stroke-width="2" stroke-miterlimit="10"/>
<path d="M584.526 224.432L544.355 241.803L440.281 339.672" stroke="url(#paint22_linear_346_9734)" stroke-width="2" stroke-miterlimit="10"/>
<path d="M637.416 320.13L577.391 306.481L486.967 390.546L512.559 459.256L409.416 556.349" stroke="url(#paint23_linear_346_9734)" stroke-width="2" stroke-miterlimit="10"/>
<path d="M665.489 408.072L594.452 365.419L544.044 412.88" stroke="url(#paint24_linear_346_9734)" stroke-width="2" stroke-miterlimit="10"/>
</g>
<defs>
<linearGradient id="paint0_linear_346_9734" x1="107.046" y1="0" x2="107.046" y2="62.1958" gradientUnits="userSpaceOnUse">
<stop stop-color="#C7D2FE"/>
<stop offset="1" stop-color="#6366F1"/>
</linearGradient>
<linearGradient id="paint1_linear_346_9734" x1="674.33" y1="21.2489" x2="674.33" y2="119.738" gradientUnits="userSpaceOnUse">
<stop stop-color="#C7D2FE"/>
<stop offset="1" stop-color="#6366F1"/>
</linearGradient>
<linearGradient id="paint2_linear_346_9734" x1="249.041" y1="580.545" x2="249.041" y2="664.3" gradientUnits="userSpaceOnUse">
<stop stop-color="#C7D2FE"/>
<stop offset="1" stop-color="#6366F1"/>
</linearGradient>
<linearGradient id="paint3_linear_346_9734" x1="441.371" y1="42.1011" x2="441.371" y2="494.968" gradientUnits="userSpaceOnUse">
<stop stop-color="#C7D2FE"/>
<stop offset="1" stop-color="#6366F1"/>
</linearGradient>
<linearGradient id="paint4_linear_346_9734" x1="454.205" y1="131.179" x2="454.205" y2="424.048" gradientUnits="userSpaceOnUse">
<stop stop-color="#C7D2FE"/>
<stop offset="1" stop-color="#6366F1"/>
</linearGradient>
<linearGradient id="paint5_linear_346_9734" x1="319.302" y1="227.534" x2="319.302" y2="230.086" gradientUnits="userSpaceOnUse">
<stop stop-color="#C7D2FE"/>
<stop offset="1" stop-color="#6366F1"/>
</linearGradient>
<linearGradient id="paint6_linear_346_9734" x1="459.359" y1="183.02" x2="459.359" y2="412.88" gradientUnits="userSpaceOnUse">
<stop stop-color="#C7D2FE"/>
<stop offset="1" stop-color="#6366F1"/>
</linearGradient>
<linearGradient id="paint7_linear_346_9734" x1="338.024" y1="218.073" x2="338.024" y2="592.058" gradientUnits="userSpaceOnUse">
<stop stop-color="#C7D2FE"/>
<stop offset="1" stop-color="#6366F1"/>
</linearGradient>
<linearGradient id="paint8_linear_346_9734" x1="387.812" y1="171.232" x2="387.812" y2="545.218" gradientUnits="userSpaceOnUse">
<stop stop-color="#C7D2FE"/>
<stop offset="1" stop-color="#6366F1"/>
</linearGradient>
<linearGradient id="paint9_linear_346_9734" x1="392.898" y1="232.342" x2="392.898" y2="378.138" gradientUnits="userSpaceOnUse">
<stop stop-color="#C7D2FE"/>
<stop offset="1" stop-color="#6366F1"/>
</linearGradient>
<linearGradient id="paint10_linear_346_9734" x1="168.156" y1="121.134" x2="168.156" y2="218.073" gradientUnits="userSpaceOnUse">
<stop stop-color="#C7D2FE"/>
<stop offset="1" stop-color="#6366F1"/>
</linearGradient>
<linearGradient id="paint11_linear_346_9734" x1="636.873" y1="424.048" x2="636.873" y2="494.929" gradientUnits="userSpaceOnUse">
<stop stop-color="#C7D2FE"/>
<stop offset="1" stop-color="#6366F1"/>
</linearGradient>
<linearGradient id="paint12_linear_346_9734" x1="622.681" y1="494.929" x2="622.681" y2="592.023" gradientUnits="userSpaceOnUse">
<stop stop-color="#C7D2FE"/>
<stop offset="1" stop-color="#6366F1"/>
</linearGradient>
<linearGradient id="paint13_linear_346_9734" x1="346.523" y1="118.963" x2="346.523" y2="237.771" gradientUnits="userSpaceOnUse">
<stop stop-color="#C7D2FE"/>
<stop offset="1" stop-color="#6366F1"/>
</linearGradient>
<linearGradient id="paint14_linear_346_9734" x1="320.155" y1="329.125" x2="320.155" y2="462.823" gradientUnits="userSpaceOnUse">
<stop stop-color="#C7D2FE"/>
<stop offset="1" stop-color="#6366F1"/>
</linearGradient>
<linearGradient id="paint15_linear_346_9734" x1="386.229" y1="364.334" x2="386.229" y2="519.125" gradientUnits="userSpaceOnUse">
<stop stop-color="#C7D2FE"/>
<stop offset="1" stop-color="#6366F1"/>
</linearGradient>
<linearGradient id="paint16_linear_346_9734" x1="535.979" y1="411.019" x2="535.979" y2="580.545" gradientUnits="userSpaceOnUse">
<stop stop-color="#C7D2FE"/>
<stop offset="1" stop-color="#6366F1"/>
</linearGradient>
<linearGradient id="paint17_linear_346_9734" x1="251.368" y1="277.942" x2="251.368" y2="376.742" gradientUnits="userSpaceOnUse">
<stop stop-color="#C7D2FE"/>
<stop offset="1" stop-color="#6366F1"/>
</linearGradient>
<linearGradient id="paint18_linear_346_9734" x1="208.947" y1="175.73" x2="208.947" y2="273.289" gradientUnits="userSpaceOnUse">
<stop stop-color="#C7D2FE"/>
<stop offset="1" stop-color="#6366F1"/>
</linearGradient>
<linearGradient id="paint19_linear_346_9734" x1="299.061" y1="51.6487" x2="299.061" y2="109.191" gradientUnits="userSpaceOnUse">
<stop stop-color="#C7D2FE"/>
<stop offset="1" stop-color="#6366F1"/>
</linearGradient>
<linearGradient id="paint20_linear_346_9734" x1="400.653" y1="55.8365" x2="400.653" y2="177.436" gradientUnits="userSpaceOnUse">
<stop stop-color="#C7D2FE"/>
<stop offset="1" stop-color="#6366F1"/>
</linearGradient>
<linearGradient id="paint21_linear_346_9734" x1="447.881" y1="131.371" x2="447.881" y2="273.444" gradientUnits="userSpaceOnUse">
<stop stop-color="#C7D2FE"/>
<stop offset="1" stop-color="#6366F1"/>
</linearGradient>
<linearGradient id="paint22_linear_346_9734" x1="512.404" y1="224.432" x2="512.404" y2="339.672" gradientUnits="userSpaceOnUse">
<stop stop-color="#C7D2FE"/>
<stop offset="1" stop-color="#6366F1"/>
</linearGradient>
<linearGradient id="paint23_linear_346_9734" x1="523.416" y1="306.481" x2="523.416" y2="556.349" gradientUnits="userSpaceOnUse">
<stop stop-color="#C7D2FE"/>
<stop offset="1" stop-color="#6366F1"/>
</linearGradient>
<linearGradient id="paint24_linear_346_9734" x1="604.767" y1="365.419" x2="604.767" y2="412.88" gradientUnits="userSpaceOnUse">
<stop stop-color="#C7D2FE"/>
<stop offset="1" stop-color="#6366F1"/>
</linearGradient>
<clipPath id="clip0_346_9734">
<rect width="800" height="664" fill="white"/>
</clipPath>
</defs>
</svg>
