<svg width="160" height="160" viewBox="0 0 160 160" fill="none" xmlns="http://www.w3.org/2000/svg">
<path d="M12.3987 47.8666H7.33203V52.9332H12.3987V47.8666Z" fill="#E7EEEB"/>
<path d="M12.3987 52.9332H7.33203V57.9999H12.3987V52.9332Z" fill="#E7EEEB"/>
<path d="M12.3987 73.2H7.33203V78.2666H12.3987V73.2Z" fill="#E7EEEB"/>
<path d="M12.3987 78.2666H7.33203V83.3333H12.3987V78.2666Z" fill="#E7EEEB"/>
<path d="M12.3987 93.4666H7.33203V98.5332H12.3987V93.4666Z" fill="#E7EEEB"/>
<path d="M12.3987 98.5332H7.33203V103.6H12.3987V98.5332Z" fill="#E7EEEB"/>
<path d="M17.4651 47.8666H12.3984V52.9332H17.4651V47.8666Z" fill="#E7EEEB"/>
<path d="M17.4651 52.9332H12.3984V57.9999H17.4651V52.9332Z" fill="#E7EEEB"/>
<path d="M17.4651 63.0665H12.3984V68.1332H17.4651V63.0665Z" fill="#E7EEEB"/>
<path d="M17.4651 73.2H12.3984V78.2666H17.4651V73.2Z" fill="#E7EEEB"/>
<path d="M17.4651 83.3333H12.3984V88.3999H17.4651V83.3333Z" fill="#E7EEEB"/>
<path d="M17.4651 88.3999H12.3984V93.4666H17.4651V88.3999Z" fill="#E7EEEB"/>
<path d="M17.4651 93.4666H12.3984V98.5332H17.4651V93.4666Z" fill="#E7EEEB"/>
<path d="M17.4651 98.5332H12.3984V103.6H17.4651V98.5332Z" fill="#E7EEEB"/>
<path d="M22.5315 47.8666H17.4648V52.9332H22.5315V47.8666Z" fill="#E7EEEB"/>
<path d="M22.5315 57.9999H17.4648V63.0665H22.5315V57.9999Z" fill="#E7EEEB"/>
<path d="M22.5315 63.0665H17.4648V68.1332H22.5315V63.0665Z" fill="#E7EEEB"/>
<path d="M22.5315 68.1333H17.4648V73.2H22.5315V68.1333Z" fill="#E7EEEB"/>
<path d="M22.5315 78.2666H17.4648V83.3333H22.5315V78.2666Z" fill="#E7EEEB"/>
<path d="M22.5315 83.3333H17.4648V88.3999H22.5315V83.3333Z" fill="#E7EEEB"/>
<path d="M22.5315 103.6H17.4648V108.667H22.5315V103.6Z" fill="#E7EEEB"/>
<path d="M27.5979 47.8666H22.5312V52.9332H27.5979V47.8666Z" fill="#E7EEEB"/>
<path d="M27.5979 57.9999H22.5312V63.0665H27.5979V57.9999Z" fill="#E7EEEB"/>
<path d="M27.5979 63.0665H22.5312V68.1332H27.5979V63.0665Z" fill="#E7EEEB"/>
<path d="M27.5979 73.2H22.5312V78.2666H27.5979V73.2Z" fill="#E7EEEB"/>
<path d="M27.5979 83.3333H22.5312V88.3999H27.5979V83.3333Z" fill="#E7EEEB"/>
<path d="M27.5979 88.3999H22.5312V93.4666H27.5979V88.3999Z" fill="#E7EEEB"/>
<path d="M27.5979 98.5332H22.5312V103.6H27.5979V98.5332Z" fill="#E7EEEB"/>
<path d="M32.6663 47.8666H27.5996V52.9332H32.6663V47.8666Z" fill="#E7EEEB"/>
<path d="M32.6663 73.2H27.5996V78.2666H32.6663V73.2Z" fill="#E7EEEB"/>
<path d="M32.6663 103.6H27.5996V108.667H32.6663V103.6Z" fill="#E7EEEB"/>
<path d="M32.6663 108.667H27.5996V113.733H32.6663V108.667Z" fill="#E7EEEB"/>
<path d="M37.7327 52.9332H32.666V57.9999H37.7327V52.9332Z" fill="#E7EEEB"/>
<path d="M37.7327 63.0665H32.666V68.1332H37.7327V63.0665Z" fill="#E7EEEB"/>
<path d="M37.7327 73.2H32.666V78.2666H37.7327V73.2Z" fill="#E7EEEB"/>
<path d="M37.7327 83.3333H32.666V88.3999H37.7327V83.3333Z" fill="#E7EEEB"/>
<path d="M37.7327 88.3999H32.666V93.4666H37.7327V88.3999Z" fill="#E7EEEB"/>
<path d="M37.7327 93.4666H32.666V98.5332H37.7327V93.4666Z" fill="#E7EEEB"/>
<path d="M37.7327 103.6H32.666V108.667H37.7327V103.6Z" fill="#E7EEEB"/>
<path d="M37.7327 108.667H32.666V113.733H37.7327V108.667Z" fill="#E7EEEB"/>
<path d="M42.7991 47.8666H37.7324V52.9332H42.7991V47.8666Z" fill="#E7EEEB"/>
<path d="M42.7991 57.9999H37.7324V63.0665H42.7991V57.9999Z" fill="#E7EEEB"/>
<path d="M42.7991 68.1333H37.7324V73.2H42.7991V68.1333Z" fill="#E7EEEB"/>
<path d="M42.7991 78.2666H37.7324V83.3333H42.7991V78.2666Z" fill="#E7EEEB"/>
<path d="M42.7991 88.3999H37.7324V93.4666H42.7991V88.3999Z" fill="#E7EEEB"/>
<path d="M42.7991 98.5332H37.7324V103.6H42.7991V98.5332Z" fill="#E7EEEB"/>
<path d="M42.7991 108.667H37.7324V113.733H42.7991V108.667Z" fill="#E7EEEB"/>
<path d="M47.8655 47.8666H42.7988V52.9332H47.8655V47.8666Z" fill="#E7EEEB"/>
<path d="M47.8655 68.1333H42.7988V73.2H47.8655V68.1333Z" fill="#E7EEEB"/>
<path d="M47.8655 73.2H42.7988V78.2666H47.8655V73.2Z" fill="#E7EEEB"/>
<path d="M47.8655 88.3999H42.7988V93.4666H47.8655V88.3999Z" fill="#E7EEEB"/>
<path d="M47.8655 93.4666H42.7988V98.5332H47.8655V93.4666Z" fill="#E7EEEB"/>
<path d="M47.8655 98.5332H42.7988V103.6H47.8655V98.5332Z" fill="#E7EEEB"/>
<path d="M47.8655 103.6H42.7988V108.667H47.8655V103.6Z" fill="#E7EEEB"/>
<path d="M47.8655 108.667H42.7988V113.733H47.8655V108.667Z" fill="#E7EEEB"/>
<path d="M52.9319 12.3999H47.8652V17.4666H52.9319V12.3999Z" fill="#E7EEEB"/>
<path d="M52.9319 17.4666H47.8652V22.5332H52.9319V17.4666Z" fill="#E7EEEB"/>
<path d="M52.9319 27.5999H47.8652V32.6665H52.9319V27.5999Z" fill="#E7EEEB"/>
<path d="M52.9319 37.7333H47.8652V42.7999H52.9319V37.7333Z" fill="#E7EEEB"/>
<path d="M52.9319 42.7999H47.8652V47.8666H52.9319V42.7999Z" fill="#E7EEEB"/>
<path d="M52.9319 52.9332H47.8652V57.9999H52.9319V52.9332Z" fill="#E7EEEB"/>
<path d="M52.9319 57.9999H47.8652V63.0665H52.9319V57.9999Z" fill="#E7EEEB"/>
<path d="M52.9319 88.3999H47.8652V93.4666H52.9319V88.3999Z" fill="#E7EEEB"/>
<path d="M52.9319 98.5332H47.8652V103.6H52.9319V98.5332Z" fill="#E7EEEB"/>
<path d="M52.9319 108.667H47.8652V113.733H52.9319V108.667Z" fill="#E7EEEB"/>
<path d="M52.9319 118.8H47.8652V123.867H52.9319V118.8Z" fill="#E7EEEB"/>
<path d="M52.9319 128.933H47.8652V134H52.9319V128.933Z" fill="#E7EEEB"/>
<path d="M52.9319 134H47.8652V139.067H52.9319V134Z" fill="#E7EEEB"/>
<path d="M52.9319 139.067H47.8652V144.133H52.9319V139.067Z" fill="#E7EEEB"/>
<path d="M52.9319 144.133H47.8652V149.2H52.9319V144.133Z" fill="#E7EEEB"/>
<path d="M52.9319 149.2H47.8652V154.267H52.9319V149.2Z" fill="#E7EEEB"/>
<path d="M57.9983 7.33325H52.9316V12.3999H57.9983V7.33325Z" fill="#E7EEEB"/>
<path d="M57.9983 22.5332H52.9316V27.5999H57.9983V22.5332Z" fill="#E7EEEB"/>
<path d="M57.9983 27.5999H52.9316V32.6665H57.9983V27.5999Z" fill="#E7EEEB"/>
<path d="M57.9983 47.8666H52.9316V52.9332H57.9983V47.8666Z" fill="#E7EEEB"/>
<path d="M57.9983 57.9999H52.9316V63.0665H57.9983V57.9999Z" fill="#E7EEEB"/>
<path d="M57.9983 73.2H52.9316V78.2666H57.9983V73.2Z" fill="#E7EEEB"/>
<path d="M57.9983 78.2666H52.9316V83.3333H57.9983V78.2666Z" fill="#E7EEEB"/>
<path d="M57.9983 83.3333H52.9316V88.3999H57.9983V83.3333Z" fill="#E7EEEB"/>
<path d="M57.9983 88.3999H52.9316V93.4666H57.9983V88.3999Z" fill="#E7EEEB"/>
<path d="M57.9983 93.4666H52.9316V98.5332H57.9983V93.4666Z" fill="#E7EEEB"/>
<path d="M57.9983 98.5332H52.9316V103.6H57.9983V98.5332Z" fill="#E7EEEB"/>
<path d="M57.9983 103.6H52.9316V108.667H57.9983V103.6Z" fill="#E7EEEB"/>
<path d="M57.9983 118.8H52.9316V123.867H57.9983V118.8Z" fill="#E7EEEB"/>
<path d="M57.9983 123.867H52.9316V128.933H57.9983V123.867Z" fill="#E7EEEB"/>
<path d="M57.9983 139.067H52.9316V144.133H57.9983V139.067Z" fill="#E7EEEB"/>
<path d="M57.9983 149.2H52.9316V154.267H57.9983V149.2Z" fill="#E7EEEB"/>
<path d="M63.0647 12.3999H57.998V17.4666H63.0647V12.3999Z" fill="#E7EEEB"/>
<path d="M63.0647 27.5999H57.998V32.6665H63.0647V27.5999Z" fill="#E7EEEB"/>
<path d="M63.0647 32.6666H57.998V37.7333H63.0647V32.6666Z" fill="#E7EEEB"/>
<path d="M63.0647 37.7333H57.998V42.7999H63.0647V37.7333Z" fill="#E7EEEB"/>
<path d="M63.0647 42.7999H57.998V47.8666H63.0647V42.7999Z" fill="#E7EEEB"/>
<path d="M63.0647 68.1333H57.998V73.2H63.0647V68.1333Z" fill="#E7EEEB"/>
<path d="M63.0647 73.2H57.998V78.2666H63.0647V73.2Z" fill="#E7EEEB"/>
<path d="M63.0647 98.5332H57.998V103.6H63.0647V98.5332Z" fill="#E7EEEB"/>
<path d="M63.0647 108.667H57.998V113.733H63.0647V108.667Z" fill="#E7EEEB"/>
<path d="M63.0647 123.867H57.998V128.933H63.0647V123.867Z" fill="#E7EEEB"/>
<path d="M63.0647 128.933H57.998V134H63.0647V128.933Z" fill="#E7EEEB"/>
<path d="M63.0647 134H57.998V139.067H63.0647V134Z" fill="#E7EEEB"/>
<path d="M63.0647 144.133H57.998V149.2H63.0647V144.133Z" fill="#E7EEEB"/>
<path d="M63.0647 149.2H57.998V154.267H63.0647V149.2Z" fill="#E7EEEB"/>
<path d="M68.1311 32.6666H63.0645V37.7333H68.1311V32.6666Z" fill="#E7EEEB"/>
<path d="M68.1311 52.9332H63.0645V57.9999H68.1311V52.9332Z" fill="#E7EEEB"/>
<path d="M68.1311 57.9999H63.0645V63.0665H68.1311V57.9999Z" fill="#E7EEEB"/>
<path d="M68.1311 68.1333H63.0645V73.2H68.1311V68.1333Z" fill="#E7EEEB"/>
<path d="M68.1311 83.3333H63.0645V88.3999H68.1311V83.3333Z" fill="#E7EEEB"/>
<path d="M68.1311 93.4666H63.0645V98.5332H68.1311V93.4666Z" fill="#E7EEEB"/>
<path d="M68.1311 98.5332H63.0645V103.6H68.1311V98.5332Z" fill="#E7EEEB"/>
<path d="M68.1311 113.733H63.0645V118.8H68.1311V113.733Z" fill="#E7EEEB"/>
<path d="M68.1311 118.8H63.0645V123.867H68.1311V118.8Z" fill="#E7EEEB"/>
<path d="M68.1311 123.867H63.0645V128.933H68.1311V123.867Z" fill="#E7EEEB"/>
<path d="M68.1311 134H63.0645V139.067H68.1311V134Z" fill="#E7EEEB"/>
<path d="M68.1311 144.133H63.0645V149.2H68.1311V144.133Z" fill="#E7EEEB"/>
<path d="M73.1995 12.3999H68.1328V17.4666H73.1995V12.3999Z" fill="#E7EEEB"/>
<path d="M73.1995 37.7333H68.1328V42.7999H73.1995V37.7333Z" fill="#E7EEEB"/>
<path d="M73.1995 42.7999H68.1328V47.8666H73.1995V42.7999Z" fill="#E7EEEB"/>
<path d="M73.1995 47.8666H68.1328V52.9332H73.1995V47.8666Z" fill="#E7EEEB"/>
<path d="M73.1995 57.9999H68.1328V63.0665H73.1995V57.9999Z" fill="#E7EEEB"/>
<path d="M73.1995 78.2666H68.1328V83.3333H73.1995V78.2666Z" fill="#E7EEEB"/>
<path d="M73.1995 93.4666H68.1328V98.5332H73.1995V93.4666Z" fill="#E7EEEB"/>
<path d="M73.1995 103.6H68.1328V108.667H73.1995V103.6Z" fill="#E7EEEB"/>
<path d="M73.1995 108.667H68.1328V113.733H73.1995V108.667Z" fill="#E7EEEB"/>
<path d="M73.1995 118.8H68.1328V123.867H73.1995V118.8Z" fill="#E7EEEB"/>
<path d="M73.1995 123.867H68.1328V128.933H73.1995V123.867Z" fill="#E7EEEB"/>
<path d="M73.1995 134H68.1328V139.067H73.1995V134Z" fill="#E7EEEB"/>
<path d="M78.2659 12.3999H73.1992V17.4666H78.2659V12.3999Z" fill="#E7EEEB"/>
<path d="M78.2659 17.4666H73.1992V22.5332H78.2659V17.4666Z" fill="#E7EEEB"/>
<path d="M78.2659 22.5332H73.1992V27.5999H78.2659V22.5332Z" fill="#E7EEEB"/>
<path d="M78.2659 27.5999H73.1992V32.6665H78.2659V27.5999Z" fill="#E7EEEB"/>
<path d="M78.2659 42.7999H73.1992V47.8666H78.2659V42.7999Z" fill="#E7EEEB"/>
<path d="M78.2659 63.0665H73.1992V68.1332H78.2659V63.0665Z" fill="#E7EEEB"/>
<path d="M78.2659 68.1333H73.1992V73.2H78.2659V68.1333Z" fill="#E7EEEB"/>
<path d="M78.2659 73.2H73.1992V78.2666H78.2659V73.2Z" fill="#E7EEEB"/>
<path d="M78.2659 78.2666H73.1992V83.3333H78.2659V78.2666Z" fill="#E7EEEB"/>
<path d="M78.2659 83.3333H73.1992V88.3999H78.2659V83.3333Z" fill="#E7EEEB"/>
<path d="M78.2659 88.3999H73.1992V93.4666H78.2659V88.3999Z" fill="#E7EEEB"/>
<path d="M78.2659 98.5332H73.1992V103.6H78.2659V98.5332Z" fill="#E7EEEB"/>
<path d="M78.2659 108.667H73.1992V113.733H78.2659V108.667Z" fill="#E7EEEB"/>
<path d="M78.2659 113.733H73.1992V118.8H78.2659V113.733Z" fill="#E7EEEB"/>
<path d="M78.2659 118.8H73.1992V123.867H78.2659V118.8Z" fill="#E7EEEB"/>
<path d="M78.2659 123.867H73.1992V128.933H78.2659V123.867Z" fill="#E7EEEB"/>
<path d="M78.2659 144.133H73.1992V149.2H78.2659V144.133Z" fill="#E7EEEB"/>
<path d="M78.2659 149.2H73.1992V154.267H78.2659V149.2Z" fill="#E7EEEB"/>
<path d="M83.3323 22.5332H78.2656V27.5999H83.3323V22.5332Z" fill="#E7EEEB"/>
<path d="M83.3323 37.7333H78.2656V42.7999H83.3323V37.7333Z" fill="#E7EEEB"/>
<path d="M83.3323 42.7999H78.2656V47.8666H83.3323V42.7999Z" fill="#E7EEEB"/>
<path d="M83.3323 52.9332H78.2656V57.9999H83.3323V52.9332Z" fill="#E7EEEB"/>
<path d="M83.3323 57.9999H78.2656V63.0665H83.3323V57.9999Z" fill="#E7EEEB"/>
<path d="M83.3323 63.0665H78.2656V68.1332H83.3323V63.0665Z" fill="#E7EEEB"/>
<path d="M83.3323 68.1333H78.2656V73.2H83.3323V68.1333Z" fill="#E7EEEB"/>
<path d="M83.3323 88.3999H78.2656V93.4666H83.3323V88.3999Z" fill="#E7EEEB"/>
<path d="M83.3323 93.4666H78.2656V98.5332H83.3323V93.4666Z" fill="#E7EEEB"/>
<path d="M83.3323 118.8H78.2656V123.867H83.3323V118.8Z" fill="#E7EEEB"/>
<path d="M83.3323 123.867H78.2656V128.933H83.3323V123.867Z" fill="#E7EEEB"/>
<path d="M83.3323 139.067H78.2656V144.133H83.3323V139.067Z" fill="#E7EEEB"/>
<path d="M83.3323 149.2H78.2656V154.267H83.3323V149.2Z" fill="#E7EEEB"/>
<path d="M88.3987 7.33325H83.332V12.3999H88.3987V7.33325Z" fill="#E7EEEB"/>
<path d="M88.3987 12.3999H83.332V17.4666H88.3987V12.3999Z" fill="#E7EEEB"/>
<path d="M88.3987 27.5999H83.332V32.6665H88.3987V27.5999Z" fill="#E7EEEB"/>
<path d="M88.3987 32.6666H83.332V37.7333H88.3987V32.6666Z" fill="#E7EEEB"/>
<path d="M88.3987 47.8666H83.332V52.9332H88.3987V47.8666Z" fill="#E7EEEB"/>
<path d="M88.3987 52.9332H83.332V57.9999H88.3987V52.9332Z" fill="#E7EEEB"/>
<path d="M88.3987 57.9999H83.332V63.0665H88.3987V57.9999Z" fill="#E7EEEB"/>
<path d="M88.3987 63.0665H83.332V68.1332H88.3987V63.0665Z" fill="#E7EEEB"/>
<path d="M88.3987 73.2H83.332V78.2666H88.3987V73.2Z" fill="#E7EEEB"/>
<path d="M88.3987 78.2666H83.332V83.3333H88.3987V78.2666Z" fill="#E7EEEB"/>
<path d="M88.3987 103.6H83.332V108.667H88.3987V103.6Z" fill="#E7EEEB"/>
<path d="M88.3987 108.667H83.332V113.733H88.3987V108.667Z" fill="#E7EEEB"/>
<path d="M88.3987 113.733H83.332V118.8H88.3987V113.733Z" fill="#E7EEEB"/>
<path d="M88.3987 118.8H83.332V123.867H88.3987V118.8Z" fill="#E7EEEB"/>
<path d="M88.3987 123.867H83.332V128.933H88.3987V123.867Z" fill="#E7EEEB"/>
<path d="M93.4651 7.33325H88.3984V12.3999H93.4651V7.33325Z" fill="#E7EEEB"/>
<path d="M93.4651 17.4666H88.3984V22.5332H93.4651V17.4666Z" fill="#E7EEEB"/>
<path d="M93.4651 27.5999H88.3984V32.6665H93.4651V27.5999Z" fill="#E7EEEB"/>
<path d="M93.4651 37.7333H88.3984V42.7999H93.4651V37.7333Z" fill="#E7EEEB"/>
<path d="M93.4651 42.7999H88.3984V47.8666H93.4651V42.7999Z" fill="#E7EEEB"/>
<path d="M93.4651 47.8666H88.3984V52.9332H93.4651V47.8666Z" fill="#E7EEEB"/>
<path d="M93.4651 63.0665H88.3984V68.1332H93.4651V63.0665Z" fill="#E7EEEB"/>
<path d="M93.4651 78.2666H88.3984V83.3333H93.4651V78.2666Z" fill="#E7EEEB"/>
<path d="M93.4651 83.3333H88.3984V88.3999H93.4651V83.3333Z" fill="#E7EEEB"/>
<path d="M93.4651 103.6H88.3984V108.667H93.4651V103.6Z" fill="#E7EEEB"/>
<path d="M93.4651 118.8H88.3984V123.867H93.4651V118.8Z" fill="#E7EEEB"/>
<path d="M93.4651 123.867H88.3984V128.933H93.4651V123.867Z" fill="#E7EEEB"/>
<path d="M93.4651 128.933H88.3984V134H93.4651V128.933Z" fill="#E7EEEB"/>
<path d="M93.4651 134H88.3984V139.067H93.4651V134Z" fill="#E7EEEB"/>
<path d="M93.4651 144.133H88.3984V149.2H93.4651V144.133Z" fill="#E7EEEB"/>
<path d="M98.5315 27.5999H93.4648V32.6665H98.5315V27.5999Z" fill="#E7EEEB"/>
<path d="M98.5315 47.8666H93.4648V52.9332H98.5315V47.8666Z" fill="#E7EEEB"/>
<path d="M98.5315 52.9332H93.4648V57.9999H98.5315V52.9332Z" fill="#E7EEEB"/>
<path d="M98.5315 63.0665H93.4648V68.1332H98.5315V63.0665Z" fill="#E7EEEB"/>
<path d="M98.5315 73.2H93.4648V78.2666H98.5315V73.2Z" fill="#E7EEEB"/>
<path d="M98.5315 83.3333H93.4648V88.3999H98.5315V83.3333Z" fill="#E7EEEB"/>
<path d="M98.5315 93.4666H93.4648V98.5332H98.5315V93.4666Z" fill="#E7EEEB"/>
<path d="M98.5315 103.6H93.4648V108.667H98.5315V103.6Z" fill="#E7EEEB"/>
<path d="M98.5315 108.667H93.4648V113.733H98.5315V108.667Z" fill="#E7EEEB"/>
<path d="M98.5315 118.8H93.4648V123.867H98.5315V118.8Z" fill="#E7EEEB"/>
<path d="M98.5315 134H93.4648V139.067H98.5315V134Z" fill="#E7EEEB"/>
<path d="M98.5315 139.067H93.4648V144.133H98.5315V139.067Z" fill="#E7EEEB"/>
<path d="M98.5315 144.133H93.4648V149.2H98.5315V144.133Z" fill="#E7EEEB"/>
<path d="M98.5315 149.2H93.4648V154.267H98.5315V149.2Z" fill="#E7EEEB"/>
<path d="M103.598 7.33325H98.5312V12.3999H103.598V7.33325Z" fill="#E7EEEB"/>
<path d="M103.598 17.4666H98.5312V22.5332H103.598V17.4666Z" fill="#E7EEEB"/>
<path d="M103.598 22.5332H98.5312V27.5999H103.598V22.5332Z" fill="#E7EEEB"/>
<path d="M103.598 27.5999H98.5312V32.6665H103.598V27.5999Z" fill="#E7EEEB"/>
<path d="M103.598 37.7333H98.5312V42.7999H103.598V37.7333Z" fill="#E7EEEB"/>
<path d="M103.598 42.7999H98.5312V47.8666H103.598V42.7999Z" fill="#E7EEEB"/>
<path d="M103.598 47.8666H98.5312V52.9332H103.598V47.8666Z" fill="#E7EEEB"/>
<path d="M103.598 52.9332H98.5312V57.9999H103.598V52.9332Z" fill="#E7EEEB"/>
<path d="M103.598 63.0665H98.5312V68.1332H103.598V63.0665Z" fill="#E7EEEB"/>
<path d="M103.598 73.2H98.5312V78.2666H103.598V73.2Z" fill="#E7EEEB"/>
<path d="M103.598 78.2666H98.5312V83.3333H103.598V78.2666Z" fill="#E7EEEB"/>
<path d="M103.598 93.4666H98.5312V98.5332H103.598V93.4666Z" fill="#E7EEEB"/>
<path d="M103.598 98.5332H98.5312V103.6H103.598V98.5332Z" fill="#E7EEEB"/>
<path d="M103.598 113.733H98.5312V118.8H103.598V113.733Z" fill="#E7EEEB"/>
<path d="M103.598 134H98.5312V139.067H103.598V134Z" fill="#E7EEEB"/>
<path d="M103.598 139.067H98.5312V144.133H103.598V139.067Z" fill="#E7EEEB"/>
<path d="M103.598 144.133H98.5312V149.2H103.598V144.133Z" fill="#E7EEEB"/>
<path d="M103.598 149.2H98.5312V154.267H103.598V149.2Z" fill="#E7EEEB"/>
<path d="M108.666 12.3999H103.6V17.4666H108.666V12.3999Z" fill="#E7EEEB"/>
<path d="M108.666 22.5332H103.6V27.5999H108.666V22.5332Z" fill="#E7EEEB"/>
<path d="M108.666 42.7999H103.6V47.8666H108.666V42.7999Z" fill="#E7EEEB"/>
<path d="M108.666 47.8666H103.6V52.9332H108.666V47.8666Z" fill="#E7EEEB"/>
<path d="M108.666 57.9999H103.6V63.0665H108.666V57.9999Z" fill="#E7EEEB"/>
<path d="M108.666 83.3333H103.6V88.3999H108.666V83.3333Z" fill="#E7EEEB"/>
<path d="M108.666 93.4666H103.6V98.5332H108.666V93.4666Z" fill="#E7EEEB"/>
<path d="M108.666 108.667H103.6V113.733H108.666V108.667Z" fill="#E7EEEB"/>
<path d="M108.666 118.8H103.6V123.867H108.666V118.8Z" fill="#E7EEEB"/>
<path d="M108.666 123.867H103.6V128.933H108.666V123.867Z" fill="#E7EEEB"/>
<path d="M108.666 134H103.6V139.067H108.666V134Z" fill="#E7EEEB"/>
<path d="M108.666 144.133H103.6V149.2H108.666V144.133Z" fill="#E7EEEB"/>
<path d="M108.666 149.2H103.6V154.267H108.666V149.2Z" fill="#E7EEEB"/>
<path d="M113.733 7.33325H108.666V12.3999H113.733V7.33325Z" fill="#E7EEEB"/>
<path d="M113.733 32.6666H108.666V37.7333H113.733V32.6666Z" fill="#E7EEEB"/>
<path d="M113.733 37.7333H108.666V42.7999H113.733V37.7333Z" fill="#E7EEEB"/>
<path d="M113.733 68.1333H108.666V73.2H113.733V68.1333Z" fill="#E7EEEB"/>
<path d="M113.733 88.3999H108.666V93.4666H113.733V88.3999Z" fill="#E7EEEB"/>
<path d="M113.733 93.4666H108.666V98.5332H113.733V93.4666Z" fill="#E7EEEB"/>
<path d="M113.733 98.5332H108.666V103.6H113.733V98.5332Z" fill="#E7EEEB"/>
<path d="M113.733 108.667H108.666V113.733H113.733V108.667Z" fill="#E7EEEB"/>
<path d="M113.733 113.733H108.666V118.8H113.733V113.733Z" fill="#E7EEEB"/>
<path d="M113.733 118.8H108.666V123.867H113.733V118.8Z" fill="#E7EEEB"/>
<path d="M113.733 123.867H108.666V128.933H113.733V123.867Z" fill="#E7EEEB"/>
<path d="M113.733 128.933H108.666V134H113.733V128.933Z" fill="#E7EEEB"/>
<path d="M113.733 134H108.666V139.067H113.733V134Z" fill="#E7EEEB"/>
<path d="M118.799 47.8666H113.732V52.9332H118.799V47.8666Z" fill="#E7EEEB"/>
<path d="M118.799 57.9999H113.732V63.0665H118.799V57.9999Z" fill="#E7EEEB"/>
<path d="M118.799 63.0665H113.732V68.1332H118.799V63.0665Z" fill="#E7EEEB"/>
<path d="M118.799 73.2H113.732V78.2666H118.799V73.2Z" fill="#E7EEEB"/>
<path d="M118.799 88.3999H113.732V93.4666H118.799V88.3999Z" fill="#E7EEEB"/>
<path d="M118.799 93.4666H113.732V98.5332H118.799V93.4666Z" fill="#E7EEEB"/>
<path d="M118.799 103.6H113.732V108.667H118.799V103.6Z" fill="#E7EEEB"/>
<path d="M118.799 108.667H113.732V113.733H118.799V108.667Z" fill="#E7EEEB"/>
<path d="M118.799 128.933H113.732V134H118.799V128.933Z" fill="#E7EEEB"/>
<path d="M118.799 144.133H113.732V149.2H118.799V144.133Z" fill="#E7EEEB"/>
<path d="M118.799 149.2H113.732V154.267H118.799V149.2Z" fill="#E7EEEB"/>
<path d="M123.865 47.8666H118.799V52.9332H123.865V47.8666Z" fill="#E7EEEB"/>
<path d="M123.865 52.9332H118.799V57.9999H123.865V52.9332Z" fill="#E7EEEB"/>
<path d="M123.865 98.5332H118.799V103.6H123.865V98.5332Z" fill="#E7EEEB"/>
<path d="M123.865 103.6H118.799V108.667H123.865V103.6Z" fill="#E7EEEB"/>
<path d="M123.865 108.667H118.799V113.733H123.865V108.667Z" fill="#E7EEEB"/>
<path d="M123.865 118.8H118.799V123.867H123.865V118.8Z" fill="#E7EEEB"/>
<path d="M123.865 128.933H118.799V134H123.865V128.933Z" fill="#E7EEEB"/>
<path d="M123.865 139.067H118.799V144.133H123.865V139.067Z" fill="#E7EEEB"/>
<path d="M123.865 144.133H118.799V149.2H123.865V144.133Z" fill="#E7EEEB"/>
<path d="M123.865 149.2H118.799V154.267H123.865V149.2Z" fill="#E7EEEB"/>
<path d="M128.932 52.9332H123.865V57.9999H128.932V52.9332Z" fill="#E7EEEB"/>
<path d="M128.932 63.0665H123.865V68.1332H128.932V63.0665Z" fill="#E7EEEB"/>
<path d="M128.932 68.1333H123.865V73.2H128.932V68.1333Z" fill="#E7EEEB"/>
<path d="M128.932 73.2H123.865V78.2666H128.932V73.2Z" fill="#E7EEEB"/>
<path d="M128.932 93.4666H123.865V98.5332H128.932V93.4666Z" fill="#E7EEEB"/>
<path d="M128.932 98.5332H123.865V103.6H128.932V98.5332Z" fill="#E7EEEB"/>
<path d="M128.932 108.667H123.865V113.733H128.932V108.667Z" fill="#E7EEEB"/>
<path d="M128.932 128.933H123.865V134H128.932V128.933Z" fill="#E7EEEB"/>
<path d="M128.932 149.2H123.865V154.267H128.932V149.2Z" fill="#E7EEEB"/>
<path d="M133.998 47.8666H128.932V52.9332H133.998V47.8666Z" fill="#E7EEEB"/>
<path d="M133.998 52.9332H128.932V57.9999H133.998V52.9332Z" fill="#E7EEEB"/>
<path d="M133.998 63.0665H128.932V68.1332H133.998V63.0665Z" fill="#E7EEEB"/>
<path d="M133.998 68.1333H128.932V73.2H133.998V68.1333Z" fill="#E7EEEB"/>
<path d="M133.998 78.2666H128.932V83.3333H133.998V78.2666Z" fill="#E7EEEB"/>
<path d="M133.998 88.3999H128.932V93.4666H133.998V88.3999Z" fill="#E7EEEB"/>
<path d="M133.998 98.5332H128.932V103.6H133.998V98.5332Z" fill="#E7EEEB"/>
<path d="M133.998 108.667H128.932V113.733H133.998V108.667Z" fill="#E7EEEB"/>
<path d="M133.998 113.733H128.932V118.8H133.998V113.733Z" fill="#E7EEEB"/>
<path d="M133.998 118.8H128.932V123.867H133.998V118.8Z" fill="#E7EEEB"/>
<path d="M133.998 123.867H128.932V128.933H133.998V123.867Z" fill="#E7EEEB"/>
<path d="M133.998 128.933H128.932V134H133.998V128.933Z" fill="#E7EEEB"/>
<path d="M133.998 134H128.932V139.067H133.998V134Z" fill="#E7EEEB"/>
<path d="M133.998 144.133H128.932V149.2H133.998V144.133Z" fill="#E7EEEB"/>
<path d="M139.065 52.9332H133.998V57.9999H139.065V52.9332Z" fill="#E7EEEB"/>
<path d="M139.065 57.9999H133.998V63.0665H139.065V57.9999Z" fill="#E7EEEB"/>
<path d="M139.065 68.1333H133.998V73.2H139.065V68.1333Z" fill="#E7EEEB"/>
<path d="M139.065 73.2H133.998V78.2666H139.065V73.2Z" fill="#E7EEEB"/>
<path d="M139.065 78.2666H133.998V83.3333H139.065V78.2666Z" fill="#E7EEEB"/>
<path d="M139.065 83.3333H133.998V88.3999H139.065V83.3333Z" fill="#E7EEEB"/>
<path d="M139.065 88.3999H133.998V93.4666H139.065V88.3999Z" fill="#E7EEEB"/>
<path d="M139.065 98.5332H133.998V103.6H139.065V98.5332Z" fill="#E7EEEB"/>
<path d="M139.065 108.667H133.998V113.733H139.065V108.667Z" fill="#E7EEEB"/>
<path d="M139.065 113.733H133.998V118.8H139.065V113.733Z" fill="#E7EEEB"/>
<path d="M139.065 128.933H133.998V134H139.065V128.933Z" fill="#E7EEEB"/>
<path d="M139.065 134H133.998V139.067H139.065V134Z" fill="#E7EEEB"/>
<path d="M144.131 47.8666H139.064V52.9332H144.131V47.8666Z" fill="#E7EEEB"/>
<path d="M144.131 52.9332H139.064V57.9999H144.131V52.9332Z" fill="#E7EEEB"/>
<path d="M144.131 57.9999H139.064V63.0665H144.131V57.9999Z" fill="#E7EEEB"/>
<path d="M144.131 73.2H139.064V78.2666H144.131V73.2Z" fill="#E7EEEB"/>
<path d="M144.131 83.3333H139.064V88.3999H144.131V83.3333Z" fill="#E7EEEB"/>
<path d="M144.131 88.3999H139.064V93.4666H144.131V88.3999Z" fill="#E7EEEB"/>
<path d="M144.131 93.4666H139.064V98.5332H144.131V93.4666Z" fill="#E7EEEB"/>
<path d="M144.131 103.6H139.064V108.667H144.131V103.6Z" fill="#E7EEEB"/>
<path d="M144.131 123.867H139.064V128.933H144.131V123.867Z" fill="#E7EEEB"/>
<path d="M144.131 128.933H139.064V134H144.131V128.933Z" fill="#E7EEEB"/>
<path d="M144.131 139.067H139.064V144.133H144.131V139.067Z" fill="#E7EEEB"/>
<path d="M144.131 149.2H139.064V154.267H144.131V149.2Z" fill="#E7EEEB"/>
<path d="M149.199 47.8666H144.133V52.9332H149.199V47.8666Z" fill="#E7EEEB"/>
<path d="M149.199 52.9332H144.133V57.9999H149.199V52.9332Z" fill="#E7EEEB"/>
<path d="M149.199 57.9999H144.133V63.0665H149.199V57.9999Z" fill="#E7EEEB"/>
<path d="M149.199 68.1333H144.133V73.2H149.199V68.1333Z" fill="#E7EEEB"/>
<path d="M149.199 73.2H144.133V78.2666H149.199V73.2Z" fill="#E7EEEB"/>
<path d="M149.199 78.2666H144.133V83.3333H149.199V78.2666Z" fill="#E7EEEB"/>
<path d="M149.199 88.3999H144.133V93.4666H149.199V88.3999Z" fill="#E7EEEB"/>
<path d="M149.199 93.4666H144.133V98.5332H149.199V93.4666Z" fill="#E7EEEB"/>
<path d="M149.199 123.867H144.133V128.933H149.199V123.867Z" fill="#E7EEEB"/>
<path d="M149.199 144.133H144.133V149.2H149.199V144.133Z" fill="#E7EEEB"/>
<path d="M154.266 52.9332H149.199V57.9999H154.266V52.9332Z" fill="#E7EEEB"/>
<path d="M154.266 63.0665H149.199V68.1332H154.266V63.0665Z" fill="#E7EEEB"/>
<path d="M154.266 83.3333H149.199V88.3999H154.266V83.3333Z" fill="#E7EEEB"/>
<path d="M154.266 88.3999H149.199V93.4666H154.266V88.3999Z" fill="#E7EEEB"/>
<path d="M154.266 93.4666H149.199V98.5332H154.266V93.4666Z" fill="#E7EEEB"/>
<path d="M154.266 103.6H149.199V108.667H154.266V103.6Z" fill="#E7EEEB"/>
<path d="M154.266 108.667H149.199V113.733H154.266V108.667Z" fill="#E7EEEB"/>
<path d="M154.266 113.733H149.199V118.8H154.266V113.733Z" fill="#E7EEEB"/>
<path d="M154.266 128.933H149.199V134H154.266V128.933Z" fill="#E7EEEB"/>
<path d="M154.266 134H149.199V139.067H154.266V134Z" fill="#E7EEEB"/>
<path d="M154.266 139.067H149.199V144.133H154.266V139.067Z" fill="#E7EEEB"/>
<path d="M154.266 144.133H149.199V149.2H154.266V144.133Z" fill="#E7EEEB"/>
<path d="M154.266 149.2H149.199V154.267H154.266V149.2Z" fill="#E7EEEB"/>
<path d="M12.3987 7.33325H7.33203V12.3999H12.3987V7.33325Z" fill="#E7EEEB"/>
<path d="M12.3987 12.3999H7.33203V17.4666H12.3987V12.3999Z" fill="#E7EEEB"/>
<path d="M12.3987 17.4666H7.33203V22.5332H12.3987V17.4666Z" fill="#E7EEEB"/>
<path d="M12.3987 22.5332H7.33203V27.5999H12.3987V22.5332Z" fill="#E7EEEB"/>
<path d="M12.3987 27.5999H7.33203V32.6665H12.3987V27.5999Z" fill="#E7EEEB"/>
<path d="M12.3987 32.6666H7.33203V37.7333H12.3987V32.6666Z" fill="#E7EEEB"/>
<path d="M12.3987 37.7333H7.33203V42.7999H12.3987V37.7333Z" fill="#E7EEEB"/>
<path d="M17.4651 7.33325H12.3984V12.3999H17.4651V7.33325Z" fill="#E7EEEB"/>
<path d="M17.4651 37.7333H12.3984V42.7999H17.4651V37.7333Z" fill="#E7EEEB"/>
<path d="M22.5315 7.33325H17.4648V12.3999H22.5315V7.33325Z" fill="#E7EEEB"/>
<path d="M22.5315 37.7333H17.4648V42.7999H22.5315V37.7333Z" fill="#E7EEEB"/>
<path d="M27.5979 7.33325H22.5312V12.3999H27.5979V7.33325Z" fill="#E7EEEB"/>
<path d="M27.5979 37.7333H22.5312V42.7999H27.5979V37.7333Z" fill="#E7EEEB"/>
<path d="M32.6663 7.33325H27.5996V12.3999H32.6663V7.33325Z" fill="#E7EEEB"/>
<path d="M32.6663 37.7333H27.5996V42.7999H32.6663V37.7333Z" fill="#E7EEEB"/>
<path d="M37.7327 7.33325H32.666V12.3999H37.7327V7.33325Z" fill="#E7EEEB"/>
<path d="M37.7327 37.7333H32.666V42.7999H37.7327V37.7333Z" fill="#E7EEEB"/>
<path d="M42.7991 7.33325H37.7324V12.3999H42.7991V7.33325Z" fill="#E7EEEB"/>
<path d="M42.7991 12.3999H37.7324V17.4666H42.7991V12.3999Z" fill="#E7EEEB"/>
<path d="M42.7991 17.4666H37.7324V22.5332H42.7991V17.4666Z" fill="#E7EEEB"/>
<path d="M42.7991 22.5332H37.7324V27.5999H42.7991V22.5332Z" fill="#E7EEEB"/>
<path d="M42.7991 27.5999H37.7324V32.6665H42.7991V27.5999Z" fill="#E7EEEB"/>
<path d="M42.7991 32.6666H37.7324V37.7333H42.7991V32.6666Z" fill="#E7EEEB"/>
<path d="M42.7991 37.7333H37.7324V42.7999H42.7991V37.7333Z" fill="#E7EEEB"/>
<path d="M22.5335 17.4667H17.4668V22.5333H22.5335V17.4667Z" fill="#E7EEEB"/>
<path d="M22.5335 22.5333H17.4668V27.6H22.5335V22.5333Z" fill="#E7EEEB"/>
<path d="M22.5335 27.6H17.4668V32.6666H22.5335V27.6Z" fill="#E7EEEB"/>
<path d="M27.5999 17.4667H22.5332V22.5333H27.5999V17.4667Z" fill="#E7EEEB"/>
<path d="M27.5999 22.5333H22.5332V27.6H27.5999V22.5333Z" fill="#E7EEEB"/>
<path d="M27.5999 27.6H22.5332V32.6666H27.5999V27.6Z" fill="#E7EEEB"/>
<path d="M32.6663 17.4667H27.5996V22.5333H32.6663V17.4667Z" fill="#E7EEEB"/>
<path d="M32.6663 22.5333H27.5996V27.6H32.6663V22.5333Z" fill="#E7EEEB"/>
<path d="M32.6663 27.6H27.5996V32.6666H32.6663V27.6Z" fill="#E7EEEB"/>
<path d="M123.864 7.33325H118.797V12.3999H123.864V7.33325Z" fill="#E7EEEB"/>
<path d="M123.864 12.3999H118.797V17.4666H123.864V12.3999Z" fill="#E7EEEB"/>
<path d="M123.864 17.4666H118.797V22.5332H123.864V17.4666Z" fill="#E7EEEB"/>
<path d="M123.864 22.5332H118.797V27.5999H123.864V22.5332Z" fill="#E7EEEB"/>
<path d="M123.864 27.5999H118.797V32.6665H123.864V27.5999Z" fill="#E7EEEB"/>
<path d="M123.864 32.6666H118.797V37.7333H123.864V32.6666Z" fill="#E7EEEB"/>
<path d="M123.864 37.7333H118.797V42.7999H123.864V37.7333Z" fill="#E7EEEB"/>
<path d="M128.93 7.33325H123.863V12.3999H128.93V7.33325Z" fill="#E7EEEB"/>
<path d="M128.93 37.7333H123.863V42.7999H128.93V37.7333Z" fill="#E7EEEB"/>
<path d="M133.996 7.33325H128.93V12.3999H133.996V7.33325Z" fill="#E7EEEB"/>
<path d="M133.996 37.7333H128.93V42.7999H133.996V37.7333Z" fill="#E7EEEB"/>
<path d="M139.063 7.33325H133.996V12.3999H139.063V7.33325Z" fill="#E7EEEB"/>
<path d="M139.063 37.7333H133.996V42.7999H139.063V37.7333Z" fill="#E7EEEB"/>
<path d="M144.131 7.33325H139.064V12.3999H144.131V7.33325Z" fill="#E7EEEB"/>
<path d="M144.131 37.7333H139.064V42.7999H144.131V37.7333Z" fill="#E7EEEB"/>
<path d="M149.198 7.33325H144.131V12.3999H149.198V7.33325Z" fill="#E7EEEB"/>
<path d="M149.198 37.7333H144.131V42.7999H149.198V37.7333Z" fill="#E7EEEB"/>
<path d="M154.264 7.33325H149.197V12.3999H154.264V7.33325Z" fill="#E7EEEB"/>
<path d="M154.264 12.3999H149.197V17.4666H154.264V12.3999Z" fill="#E7EEEB"/>
<path d="M154.264 17.4666H149.197V22.5332H154.264V17.4666Z" fill="#E7EEEB"/>
<path d="M154.264 22.5332H149.197V27.5999H154.264V22.5332Z" fill="#E7EEEB"/>
<path d="M154.264 27.5999H149.197V32.6665H154.264V27.5999Z" fill="#E7EEEB"/>
<path d="M154.264 32.6666H149.197V37.7333H154.264V32.6666Z" fill="#E7EEEB"/>
<path d="M154.264 37.7333H149.197V42.7999H154.264V37.7333Z" fill="#E7EEEB"/>
<path d="M133.998 17.4667H128.932V22.5333H133.998V17.4667Z" fill="#E7EEEB"/>
<path d="M133.998 22.5333H128.932V27.6H133.998V22.5333Z" fill="#E7EEEB"/>
<path d="M133.998 27.6H128.932V32.6666H133.998V27.6Z" fill="#E7EEEB"/>
<path d="M139.065 17.4667H133.998V22.5333H139.065V17.4667Z" fill="#E7EEEB"/>
<path d="M139.065 22.5333H133.998V27.6H139.065V22.5333Z" fill="#E7EEEB"/>
<path d="M139.065 27.6H133.998V32.6666H139.065V27.6Z" fill="#E7EEEB"/>
<path d="M144.131 17.4667H139.064V22.5333H144.131V17.4667Z" fill="#E7EEEB"/>
<path d="M144.131 22.5333H139.064V27.6H144.131V22.5333Z" fill="#E7EEEB"/>
<path d="M144.131 27.6H139.064V32.6666H144.131V27.6Z" fill="#E7EEEB"/>
<path d="M12.3987 118.8H7.33203V123.866H12.3987V118.8Z" fill="#E7EEEB"/>
<path d="M12.3987 123.866H7.33203V128.933H12.3987V123.866Z" fill="#E7EEEB"/>
<path d="M12.3987 128.933H7.33203V134H12.3987V128.933Z" fill="#E7EEEB"/>
<path d="M12.3987 134H7.33203V139.066H12.3987V134Z" fill="#E7EEEB"/>
<path d="M12.3987 139.067H7.33203V144.133H12.3987V139.067Z" fill="#E7EEEB"/>
<path d="M12.3987 144.133H7.33203V149.2H12.3987V144.133Z" fill="#E7EEEB"/>
<path d="M12.3987 149.2H7.33203V154.266H12.3987V149.2Z" fill="#E7EEEB"/>
<path d="M17.4651 118.8H12.3984V123.866H17.4651V118.8Z" fill="#E7EEEB"/>
<path d="M17.4651 149.2H12.3984V154.266H17.4651V149.2Z" fill="#E7EEEB"/>
<path d="M22.5315 118.8H17.4648V123.866H22.5315V118.8Z" fill="#E7EEEB"/>
<path d="M22.5315 149.2H17.4648V154.266H22.5315V149.2Z" fill="#E7EEEB"/>
<path d="M27.5979 118.8H22.5312V123.866H27.5979V118.8Z" fill="#E7EEEB"/>
<path d="M27.5979 149.2H22.5312V154.266H27.5979V149.2Z" fill="#E7EEEB"/>
<path d="M32.6663 118.8H27.5996V123.866H32.6663V118.8Z" fill="#E7EEEB"/>
<path d="M32.6663 149.2H27.5996V154.266H32.6663V149.2Z" fill="#E7EEEB"/>
<path d="M37.7327 118.8H32.666V123.866H37.7327V118.8Z" fill="#E7EEEB"/>
<path d="M37.7327 149.2H32.666V154.266H37.7327V149.2Z" fill="#E7EEEB"/>
<path d="M42.7991 118.8H37.7324V123.866H42.7991V118.8Z" fill="#E7EEEB"/>
<path d="M42.7991 123.866H37.7324V128.933H42.7991V123.866Z" fill="#E7EEEB"/>
<path d="M42.7991 128.933H37.7324V134H42.7991V128.933Z" fill="#E7EEEB"/>
<path d="M42.7991 134H37.7324V139.066H42.7991V134Z" fill="#E7EEEB"/>
<path d="M42.7991 139.067H37.7324V144.133H42.7991V139.067Z" fill="#E7EEEB"/>
<path d="M42.7991 144.133H37.7324V149.2H42.7991V144.133Z" fill="#E7EEEB"/>
<path d="M42.7991 149.2H37.7324V154.266H42.7991V149.2Z" fill="#E7EEEB"/>
<path d="M22.5335 128.933H17.4668V134H22.5335V128.933Z" fill="#E7EEEB"/>
<path d="M22.5335 134H17.4668V139.067H22.5335V134Z" fill="#E7EEEB"/>
<path d="M22.5335 139.067H17.4668V144.133H22.5335V139.067Z" fill="#E7EEEB"/>
<path d="M27.5999 128.933H22.5332V134H27.5999V128.933Z" fill="#E7EEEB"/>
<path d="M27.5999 134H22.5332V139.067H27.5999V134Z" fill="#E7EEEB"/>
<path d="M27.5999 139.067H22.5332V144.133H27.5999V139.067Z" fill="#E7EEEB"/>
<path d="M32.6663 128.933H27.5996V134H32.6663V128.933Z" fill="#E7EEEB"/>
<path d="M32.6663 134H27.5996V139.067H32.6663V134Z" fill="#E7EEEB"/>
<path d="M32.6663 139.067H27.5996V144.133H32.6663V139.067Z" fill="#E7EEEB"/>
</svg>
