<svg width="112" height="48" viewBox="0 0 112 48" fill="none" xmlns="http://www.w3.org/2000/svg">
<path d="M68.003 36.4259L68 36.4239C64.2817 33.944 62.3085 29.7536 62.0189 24.7231C61.7788 20.5506 62.672 17.0953 65.0607 14.2234C67.1344 11.7223 69.8314 10.3029 72.7633 9.49638L72.7684 9.49497C76.6856 8.43962 80.6602 8.32623 84.6263 9.10925C88.8403 9.93748 92.6818 11.7884 95.133 15.8973C96.1044 17.5197 96.6818 19.2883 96.8976 21.1493M68.003 36.4259L96.8976 21.1493M68.003 36.4259C70.383 38.001 73.0114 38.7637 75.7142 39.1196M68.003 36.4259L75.7142 39.1196M96.8976 21.1493C97.2954 24.5715 97.1897 28.0734 95.5159 31.4065L95.5145 31.4094C93.978 34.4452 91.5658 36.4626 88.5842 37.7076L88.5837 37.7078C84.3989 39.4523 80.0581 39.6983 75.7142 39.1196M96.8976 21.1493L75.7142 39.1196M1 24C1 11.2707 11.0253 1 23.3333 1H88.6667C100.975 1 111 11.2707 111 24C111 36.7293 100.975 47 88.6667 47H23.3333C11.0253 47 1 36.7293 1 24Z" stroke="white" stroke-width="2"/>
</svg>
