<svg width="112" height="48" viewBox="0 0 112 48" fill="none" xmlns="http://www.w3.org/2000/svg">
<path d="M1 24C1 11.2707 11.0253 1 23.3333 1H88.6667C100.975 1 111 11.2707 111 24C111 36.7293 100.975 47 88.6667 47H23.3333C11.0253 47 1 36.7293 1 24Z" stroke="white" stroke-width="2"/>
<path d="M63.0362 25.0657C62.8068 21.0804 63.6594 17.8941 65.8495 15.2616C67.7591 12.9583 70.2564 11.6283 73.0474 10.8606C76.8133 9.84598 80.6326 9.73629 84.4519 10.4904C88.4982 11.2856 92.0371 13.0268 94.294 16.8109C95.1887 18.3054 95.7228 19.9369 95.9232 21.6644C96.3104 24.9961 96.1902 28.2729 94.6412 31.3578C93.2256 34.1547 91.0088 36.0194 88.2178 37.1848C84.2382 38.8437 80.0851 39.0905 75.8651 38.5284C73.2611 38.1856 70.7905 37.459 68.5738 35.992C65.1818 33.7297 63.3127 29.8701 63.0362 25.0657Z" stroke="white" stroke-width="2"/>
</svg>
