<svg width="294" height="104" viewBox="0 0 294 104" fill="none" xmlns="http://www.w3.org/2000/svg">
<g filter="url(#filter0_b_198_4373)">
<path d="M86.894 67.7153V36.2853H100.037C101.912 36.2853 103.522 36.6228 104.866 37.2978C106.237 37.9728 107.287 38.9291 108.015 40.1666C108.771 41.376 109.149 42.8244 109.149 44.512C109.149 46.0588 108.743 47.4651 107.931 48.7307C107.147 49.9683 105.985 50.9386 104.446 51.6417L104.404 50.0808C105.747 50.587 106.853 51.262 107.721 52.1058C108.617 52.9214 109.289 53.8777 109.736 54.9746C110.184 56.0433 110.408 57.1824 110.408 58.3918C110.408 61.2887 109.484 63.5668 107.637 65.2262C105.789 66.8856 103.27 67.7153 100.079 67.7153H86.894ZM91.009 63.9184H100.247C102.066 63.9184 103.522 63.4262 104.614 62.4418C105.705 61.4574 106.251 60.1215 106.251 58.434C106.251 56.7464 105.705 55.4105 104.614 54.4261C103.522 53.4136 102.066 52.9073 100.247 52.9073H91.009V63.9184ZM91.009 49.1948H99.9528C101.464 49.1948 102.682 48.7589 103.606 47.887C104.53 46.987 104.992 45.8479 104.992 44.4698C104.992 43.0354 104.53 41.9385 103.606 41.1791C102.682 40.4197 101.464 40.04 99.9528 40.04H91.009V49.1948Z" fill="url(#paint0_radial_198_4373)"/>
<path d="M113.825 67.7153V39.7115L117.731 35.7791V67.7153H113.825Z" fill="url(#paint1_radial_198_4373)"/>
<path d="M132.86 68.2216C130.676 68.2216 128.703 67.7153 126.939 66.7028C125.175 65.6622 123.776 64.2418 122.74 62.4418C121.704 60.6418 121.186 58.6027 121.186 56.3246C121.186 54.0464 121.69 52.0214 122.698 50.2495C123.734 48.4776 125.134 47.0714 126.897 46.0307C128.661 44.9901 130.648 44.4698 132.86 44.4698C135.043 44.4698 137.017 44.9901 138.78 46.0307C140.544 47.0432 141.929 48.4354 142.937 50.2073C143.973 51.9792 144.491 54.0183 144.491 56.3246C144.491 58.6308 143.959 60.684 142.895 62.484C141.831 64.2559 140.418 65.6622 138.654 66.7028C136.919 67.7153 134.987 68.2216 132.86 68.2216ZM132.86 64.4246C134.259 64.4246 135.519 64.0731 136.639 63.3699C137.786 62.6668 138.682 61.6965 139.326 60.459C139.998 59.2215 140.334 57.8433 140.334 56.3246C140.334 54.7777 139.998 53.4136 139.326 52.2323C138.682 51.023 137.786 50.0667 136.639 49.3636C135.519 48.6323 134.259 48.2667 132.86 48.2667C131.432 48.2667 130.144 48.6323 128.997 49.3636C127.877 50.0667 126.981 51.023 126.309 52.2323C125.637 53.4136 125.301 54.7777 125.301 56.3246C125.301 57.8433 125.637 59.2215 126.309 60.459C126.981 61.6965 127.877 62.6668 128.997 63.3699C130.144 64.0731 131.432 64.4246 132.86 64.4246Z" fill="url(#paint2_radial_198_4373)"/>
<path d="M158.402 68.2216C156.19 68.2216 154.217 67.7012 152.481 66.6606C150.774 65.62 149.43 64.1996 148.45 62.3996C147.47 60.5996 146.981 58.5746 146.981 56.3246C146.981 54.0464 147.47 52.0214 148.45 50.2495C149.43 48.4776 150.774 47.0714 152.481 46.0307C154.217 44.9901 156.19 44.4698 158.402 44.4698C159.885 44.4698 161.271 44.737 162.559 45.2713C163.846 45.8057 164.98 46.5229 165.96 47.4229C166.94 48.3229 167.654 49.3776 168.101 50.587L164.616 52.2745C164.084 51.0933 163.273 50.137 162.181 49.4057C161.089 48.6464 159.829 48.2667 158.402 48.2667C157.03 48.2667 155.784 48.6182 154.665 49.3214C153.573 50.0245 152.705 50.9808 152.061 52.1901C151.418 53.3995 151.096 54.7917 151.096 56.3668C151.096 57.8855 151.418 59.2637 152.061 60.5012C152.705 61.7106 153.573 62.6668 154.665 63.3699C155.784 64.0731 157.03 64.4246 158.402 64.4246C159.829 64.4246 161.089 64.059 162.181 63.3278C163.273 62.5684 164.084 61.5699 164.616 60.3324L168.101 62.1043C167.654 63.2856 166.94 64.3403 165.96 65.2684C164.98 66.1684 163.846 66.8856 162.559 67.42C161.271 67.9544 159.885 68.2216 158.402 68.2216Z" fill="url(#paint3_radial_198_4373)"/>
<path d="M171.525 67.7153V39.7115L175.43 35.7791V57.6746L173.835 57.2949L185.844 44.976H190.84L182.149 54.1308L191.428 67.7153H186.809L178.328 55.3964L180.763 55.2699L174.171 62.1887L175.43 59.3199V67.7153H171.525Z" fill="url(#paint4_radial_198_4373)"/>
<path d="M193.26 67.7153V39.7115L197.165 35.7791V49.4057L196.451 49.0261C197.011 47.5917 197.907 46.4807 199.138 45.6932C200.398 44.8776 201.868 44.4698 203.547 44.4698C205.171 44.4698 206.612 44.8354 207.872 45.5666C209.16 46.2979 210.168 47.3104 210.895 48.6042C211.651 49.8979 212.029 51.3605 212.029 52.9917V67.7153H208.082V54.2574C208.082 52.9917 207.844 51.923 207.368 51.0511C206.92 50.1792 206.291 49.5042 205.479 49.0261C204.667 48.5198 203.729 48.2667 202.665 48.2667C201.63 48.2667 200.692 48.5198 199.852 49.0261C199.012 49.5042 198.355 50.1933 197.879 51.0933C197.403 51.9651 197.165 53.0198 197.165 54.2574V67.7153H193.26Z" fill="url(#paint5_radial_198_4373)"/>
<path d="M223.958 68.2216C222.334 68.2216 220.864 67.8419 219.549 67.0825C218.261 66.3231 217.253 65.2684 216.525 63.9184C215.826 62.5403 215.476 60.9652 215.476 59.1933V44.976H219.381V58.7715C219.381 59.8965 219.605 60.8809 220.052 61.7246C220.528 62.5684 221.172 63.2293 221.984 63.7075C222.824 64.1856 223.776 64.4246 224.839 64.4246C225.903 64.4246 226.841 64.1856 227.653 63.7075C228.492 63.2293 229.136 62.5403 229.584 61.6402C230.06 60.7402 230.298 59.6715 230.298 58.434V44.976H234.245V67.7153H230.424V63.2856L231.054 63.6653C230.522 65.0997 229.612 66.2247 228.324 67.0403C227.065 67.8278 225.609 68.2216 223.958 68.2216Z" fill="url(#paint6_radial_198_4373)"/>
<path d="M250.33 68.2216C248.511 68.2216 246.845 67.8137 245.334 66.9981C243.85 66.1825 242.702 65.0293 241.89 63.5387L242.436 62.8637V67.7153H238.615V39.7115L242.52 35.7791V49.8698L241.932 48.8995C242.772 47.5495 243.92 46.4807 245.376 45.6932C246.831 44.8776 248.497 44.4698 250.372 44.4698C252.5 44.4698 254.403 44.9901 256.083 46.0307C257.79 47.0714 259.134 48.4917 260.114 50.2917C261.094 52.0636 261.584 54.0886 261.584 56.3668C261.584 58.5887 261.094 60.5996 260.114 62.3996C259.134 64.1996 257.79 65.62 256.083 66.6606C254.403 67.7012 252.486 68.2216 250.33 68.2216ZM250.036 64.4246C251.464 64.4246 252.738 64.0731 253.857 63.3699C254.977 62.6668 255.845 61.7106 256.461 60.5012C257.105 59.2637 257.427 57.8855 257.427 56.3668C257.427 54.7917 257.105 53.4136 256.461 52.2323C255.845 51.023 254.977 50.0667 253.857 49.3636C252.738 48.6323 251.464 48.2667 250.036 48.2667C248.609 48.2667 247.321 48.6182 246.173 49.3214C245.054 50.0245 244.158 50.9948 243.486 52.2323C242.842 53.4417 242.52 54.8199 242.52 56.3668C242.52 57.8855 242.842 59.2637 243.486 60.5012C244.158 61.7106 245.054 62.6668 246.173 63.3699C247.321 64.0731 248.609 64.4246 250.036 64.4246Z" fill="url(#paint7_radial_198_4373)"/>
</g>
<g filter="url(#filter1_b_198_4373)">
<path d="M32.4175 68.1005L32.4175 35.8995L36.2817 32.0354L36.2817 64.2364H64.619V68.1005L32.4175 68.1005Z" fill="url(#paint8_linear_198_4373)"/>
<path d="M36.2817 32.0354L68.4832 32.0354C68.4832 32.0354 70.8383 34.3905 72.3474 35.8995C59.7719 35.8995 40.1459 35.8995 40.1459 35.8995V64.2364L36.2817 64.2364L36.2817 32.0354Z" fill="url(#paint9_linear_198_4373)"/>
<path d="M36.2817 32.0354L68.4832 32.0354C68.4832 32.0354 70.8383 34.3905 72.3474 35.8995C59.7719 35.8995 40.1459 35.8995 40.1459 35.8995V64.2364L36.2817 64.2364L36.2817 32.0354Z" fill="black" fill-opacity="0.16"/>
<path d="M72.3474 35.8995C72.3474 48.4748 72.3474 68.1005 72.3474 68.1005L68.4832 71.9646V39.7636L40.1459 39.7636L40.1459 35.8995C40.1459 35.8995 59.7719 35.8995 72.3474 35.8995Z" fill="url(#paint10_linear_198_4373)"/>
<path d="M68.4832 71.9646L36.2817 71.9646L32.4175 68.1005L64.619 68.1005L64.619 39.7636L68.4832 39.7636V71.9646Z" fill="url(#paint11_linear_198_4373)"/>
<path d="M68.4832 71.9646L36.2817 71.9646L32.4175 68.1005L64.619 68.1005L64.619 39.7636L68.4832 39.7636V71.9646Z" fill="black" fill-opacity="0.08"/>
</g>
<g opacity="0.3" filter="url(#filter2_i_198_4373)">
<path d="M32.417 68.1018L32.417 35.9008L36.2812 32.0367L36.2812 64.2377L64.6185 64.2377L64.6185 68.1018L32.417 68.1018Z" stroke="url(#paint12_linear_198_4373)" stroke-opacity="0.32" stroke-width="0.249557"/>
</g>
<g opacity="0.3" filter="url(#filter3_i_198_4373)">
<path d="M36.2822 32.0354L68.4838 32.0354L72.348 35.8995L40.1464 35.8995L40.1464 64.2364H36.2822L36.2822 32.0354Z" stroke="url(#paint13_linear_198_4373)" stroke-opacity="0.32" stroke-width="0.249557"/>
</g>
<g opacity="0.3" filter="url(#filter4_i_198_4373)">
<path d="M72.3457 35.8992L72.3457 68.1002L68.4815 71.9643L68.4815 39.7633L40.1441 39.7633L40.1441 35.8992L72.3457 35.8992Z" stroke="url(#paint14_linear_198_4373)" stroke-opacity="0.32" stroke-width="0.249557"/>
</g>
<g opacity="0.3" filter="url(#filter5_i_198_4373)">
<path d="M68.4839 71.9644L36.2823 71.9644L32.4181 68.1002L64.6197 68.1002L64.6197 39.7634L68.4839 39.7634L68.4839 71.9644Z" stroke="url(#paint15_linear_198_4373)" stroke-opacity="0.32" stroke-width="0.249557"/>
</g>
<defs>
<filter id="filter0_b_198_4373" x="78.9082" y="27.7932" width="190.661" height="48.4143" filterUnits="userSpaceOnUse" color-interpolation-filters="sRGB">
<feFlood flood-opacity="0" result="BackgroundImageFix"/>
<feGaussianBlur in="BackgroundImageFix" stdDeviation="3.99291"/>
<feComposite in2="SourceAlpha" operator="in" result="effect1_backgroundBlur_198_4373"/>
<feBlend mode="normal" in="SourceGraphic" in2="effect1_backgroundBlur_198_4373" result="shape"/>
</filter>
<filter id="filter1_b_198_4373" x="-15.4969" y="-15.879" width="135.758" height="135.758" filterUnits="userSpaceOnUse" color-interpolation-filters="sRGB">
<feFlood flood-opacity="0" result="BackgroundImageFix"/>
<feGaussianBlur in="BackgroundImageFix" stdDeviation="23.9572"/>
<feComposite in2="SourceAlpha" operator="in" result="effect1_backgroundBlur_198_4373"/>
<feBlend mode="normal" in="SourceGraphic" in2="effect1_backgroundBlur_198_4373" result="shape"/>
</filter>
<filter id="filter2_i_198_4373" x="32.292" y="31.7354" width="56.4084" height="48.4698" filterUnits="userSpaceOnUse" color-interpolation-filters="sRGB">
<feFlood flood-opacity="0" result="BackgroundImageFix"/>
<feBlend mode="normal" in="SourceGraphic" in2="BackgroundImageFix" result="shape"/>
<feColorMatrix in="SourceAlpha" type="matrix" values="0 0 0 0 0 0 0 0 0 0 0 0 0 0 0 0 0 0 127 0" result="hardAlpha"/>
<feOffset dx="23.9572" dy="11.9786"/>
<feGaussianBlur stdDeviation="23.9572"/>
<feComposite in2="hardAlpha" operator="arithmetic" k2="-1" k3="1"/>
<feColorMatrix type="matrix" values="0 0 0 0 0 0 0 0 0 0 0 0 0 0 0 0 0 0 0.2 0"/>
<feBlend mode="normal" in2="shape" result="effect1_innerShadow_198_4373"/>
</filter>
<filter id="filter3_i_198_4373" x="36.1572" y="31.9106" width="60.4494" height="44.429" filterUnits="userSpaceOnUse" color-interpolation-filters="sRGB">
<feFlood flood-opacity="0" result="BackgroundImageFix"/>
<feBlend mode="normal" in="SourceGraphic" in2="BackgroundImageFix" result="shape"/>
<feColorMatrix in="SourceAlpha" type="matrix" values="0 0 0 0 0 0 0 0 0 0 0 0 0 0 0 0 0 0 127 0" result="hardAlpha"/>
<feOffset dx="23.9572" dy="11.9786"/>
<feGaussianBlur stdDeviation="23.9572"/>
<feComposite in2="hardAlpha" operator="arithmetic" k2="-1" k3="1"/>
<feColorMatrix type="matrix" values="0 0 0 0 0 0 0 0 0 0 0 0 0 0 0 0 0 0 0.2 0"/>
<feBlend mode="normal" in2="shape" result="effect1_innerShadow_198_4373"/>
</filter>
<filter id="filter4_i_198_4373" x="40.0195" y="35.7744" width="56.4084" height="48.4698" filterUnits="userSpaceOnUse" color-interpolation-filters="sRGB">
<feFlood flood-opacity="0" result="BackgroundImageFix"/>
<feBlend mode="normal" in="SourceGraphic" in2="BackgroundImageFix" result="shape"/>
<feColorMatrix in="SourceAlpha" type="matrix" values="0 0 0 0 0 0 0 0 0 0 0 0 0 0 0 0 0 0 127 0" result="hardAlpha"/>
<feOffset dx="23.9572" dy="11.9786"/>
<feGaussianBlur stdDeviation="23.9572"/>
<feComposite in2="hardAlpha" operator="arithmetic" k2="-1" k3="1"/>
<feColorMatrix type="matrix" values="0 0 0 0 0 0 0 0 0 0 0 0 0 0 0 0 0 0 0.2 0"/>
<feBlend mode="normal" in2="shape" result="effect1_innerShadow_198_4373"/>
</filter>
<filter id="filter5_i_198_4373" x="32.1167" y="39.6387" width="60.4494" height="44.429" filterUnits="userSpaceOnUse" color-interpolation-filters="sRGB">
<feFlood flood-opacity="0" result="BackgroundImageFix"/>
<feBlend mode="normal" in="SourceGraphic" in2="BackgroundImageFix" result="shape"/>
<feColorMatrix in="SourceAlpha" type="matrix" values="0 0 0 0 0 0 0 0 0 0 0 0 0 0 0 0 0 0 127 0" result="hardAlpha"/>
<feOffset dx="23.9572" dy="11.9786"/>
<feGaussianBlur stdDeviation="23.9572"/>
<feComposite in2="hardAlpha" operator="arithmetic" k2="-1" k3="1"/>
<feColorMatrix type="matrix" values="0 0 0 0 0 0 0 0 0 0 0 0 0 0 0 0 0 0 0.2 0"/>
<feBlend mode="normal" in2="shape" result="effect1_innerShadow_198_4373"/>
</filter>
<radialGradient id="paint0_radial_198_4373" cx="0" cy="0" r="1" gradientUnits="userSpaceOnUse" gradientTransform="translate(170.398 47.5495) rotate(90.0135) scale(88.5302 183.732)">
<stop offset="0.297414" stop-color="white"/>
<stop offset="1" stop-color="white" stop-opacity="0"/>
</radialGradient>
<radialGradient id="paint1_radial_198_4373" cx="0" cy="0" r="1" gradientUnits="userSpaceOnUse" gradientTransform="translate(170.398 47.5495) rotate(90.0135) scale(88.5302 183.732)">
<stop offset="0.297414" stop-color="white"/>
<stop offset="1" stop-color="white" stop-opacity="0"/>
</radialGradient>
<radialGradient id="paint2_radial_198_4373" cx="0" cy="0" r="1" gradientUnits="userSpaceOnUse" gradientTransform="translate(170.398 47.5495) rotate(90.0135) scale(88.5302 183.732)">
<stop offset="0.297414" stop-color="white"/>
<stop offset="1" stop-color="white" stop-opacity="0"/>
</radialGradient>
<radialGradient id="paint3_radial_198_4373" cx="0" cy="0" r="1" gradientUnits="userSpaceOnUse" gradientTransform="translate(170.398 47.5495) rotate(90.0135) scale(88.5302 183.732)">
<stop offset="0.297414" stop-color="white"/>
<stop offset="1" stop-color="white" stop-opacity="0"/>
</radialGradient>
<radialGradient id="paint4_radial_198_4373" cx="0" cy="0" r="1" gradientUnits="userSpaceOnUse" gradientTransform="translate(170.398 47.5495) rotate(90.0135) scale(88.5302 183.732)">
<stop offset="0.297414" stop-color="white"/>
<stop offset="1" stop-color="white" stop-opacity="0"/>
</radialGradient>
<radialGradient id="paint5_radial_198_4373" cx="0" cy="0" r="1" gradientUnits="userSpaceOnUse" gradientTransform="translate(170.398 47.5495) rotate(90.0135) scale(88.5302 183.732)">
<stop offset="0.297414" stop-color="white"/>
<stop offset="1" stop-color="white" stop-opacity="0"/>
</radialGradient>
<radialGradient id="paint6_radial_198_4373" cx="0" cy="0" r="1" gradientUnits="userSpaceOnUse" gradientTransform="translate(170.398 47.5495) rotate(90.0135) scale(88.5302 183.732)">
<stop offset="0.297414" stop-color="white"/>
<stop offset="1" stop-color="white" stop-opacity="0"/>
</radialGradient>
<radialGradient id="paint7_radial_198_4373" cx="0" cy="0" r="1" gradientUnits="userSpaceOnUse" gradientTransform="translate(170.398 47.5495) rotate(90.0135) scale(88.5302 183.732)">
<stop offset="0.297414" stop-color="white"/>
<stop offset="1" stop-color="white" stop-opacity="0"/>
</radialGradient>
<linearGradient id="paint8_linear_198_4373" x1="32.4175" y1="52" x2="64.566" y2="52" gradientUnits="userSpaceOnUse">
<stop stop-color="white"/>
<stop offset="1" stop-color="white" stop-opacity="0"/>
</linearGradient>
<linearGradient id="paint9_linear_198_4373" x1="52.3824" y1="32.0354" x2="52.3825" y2="64.9274" gradientUnits="userSpaceOnUse">
<stop stop-color="white"/>
<stop offset="1" stop-color="white" stop-opacity="0"/>
</linearGradient>
<linearGradient id="paint10_linear_198_4373" x1="40.2609" y1="52" x2="72.3474" y2="52" gradientUnits="userSpaceOnUse">
<stop stop-color="white" stop-opacity="0"/>
<stop offset="1" stop-color="white"/>
</linearGradient>
<linearGradient id="paint11_linear_198_4373" x1="50.4504" y1="71.9646" x2="50.4504" y2="39.7636" gradientUnits="userSpaceOnUse">
<stop stop-color="white"/>
<stop offset="1" stop-color="white" stop-opacity="0"/>
</linearGradient>
<linearGradient id="paint12_linear_198_4373" x1="32.417" y1="50.0693" x2="64.6185" y2="50.0693" gradientUnits="userSpaceOnUse">
<stop stop-color="white" stop-opacity="0"/>
<stop offset="1" stop-color="#FCFCFC"/>
</linearGradient>
<linearGradient id="paint13_linear_198_4373" x1="54.3151" y1="32.0354" x2="54.3151" y2="64.2364" gradientUnits="userSpaceOnUse">
<stop stop-color="white" stop-opacity="0"/>
<stop offset="1" stop-color="#FCFCFC"/>
</linearGradient>
<linearGradient id="paint14_linear_198_4373" x1="72.3457" y1="53.9317" x2="40.1441" y2="53.9317" gradientUnits="userSpaceOnUse">
<stop stop-color="white" stop-opacity="0"/>
<stop offset="1" stop-color="#FCFCFC"/>
</linearGradient>
<linearGradient id="paint15_linear_198_4373" x1="50.451" y1="71.9644" x2="50.451" y2="39.7634" gradientUnits="userSpaceOnUse">
<stop stop-color="white" stop-opacity="0"/>
<stop offset="1" stop-color="#FCFCFC"/>
</linearGradient>
</defs>
</svg>
