<svg width="294" height="104" viewBox="0 0 294 104" fill="none" xmlns="http://www.w3.org/2000/svg">
<path d="M54.5816 51.8918C54.6689 60.7009 47.6162 67.7802 38.9617 67.8944C38.9448 67.8955 38.9257 67.8955 38.908 67.8958L29.005 67.9991C20.2706 68.09 13.0919 61.0584 13.0009 52.3252C12.9091 43.5916 19.941 36.4115 28.6746 36.3212C30.1247 36.3061 30.785 36 32.5635 36.8892C33.0081 38.6677 33.0959 41.968 32.2788 43.6757C32.0022 44.2539 31.427 44.6299 30.7859 44.6366L28.8574 44.6567C24.7273 44.6998 21.3344 48.0332 21.337 52.1636C21.3396 56.3346 24.7566 59.706 28.918 59.6625L38.8201 59.56C42.9747 59.5167 46.2883 56.1156 46.2453 51.9785C46.2389 51.4337 46.1708 50.9482 46.1001 50.5867C46.0499 50.3311 46.0599 50.0674 46.1297 49.8165C46.1996 49.5656 46.3271 49.3345 46.5019 49.1416C47.2429 48.326 48.3157 47.7883 49.5464 47.7754L52.649 47.743C53.4626 47.7345 54.1568 48.3156 54.3076 49.115C54.4802 50.0308 54.5719 50.9599 54.5816 51.8918ZM75.3513 51.6745C75.2601 42.9415 68.0816 35.9098 59.3473 36.0009L49.4441 36.1041C49.4264 36.1043 49.4072 36.1045 49.3903 36.1054C40.7359 36.2197 33.6831 43.2989 33.7704 52.1082C33.7802 53.0399 33.8718 53.9691 34.0444 54.8847C34.1952 55.6842 34.8897 56.2653 35.7031 56.2567L38.8057 56.2243C40.0364 56.2115 41.1092 55.6739 41.8502 54.8581C42.025 54.6652 42.1525 54.4341 42.2223 54.1833C42.2922 53.9325 42.3022 53.6687 42.252 53.4132C42.1813 53.0515 42.1132 52.566 42.1068 52.0212C42.0638 47.8841 45.3774 44.483 49.5317 44.4397L59.434 44.3372C63.5955 44.2938 67.0124 47.665 67.0152 51.8361C67.0177 55.9665 63.6249 59.3 59.4947 59.343L57.5662 59.3632C56.9252 59.3699 56.3499 59.7459 56.0734 60.324C55.2561 62.0319 54.1945 63.589 52.9505 64.9558C51.9745 66.0282 52.7593 67.7505 54.2092 67.7356L59.6773 67.6785C68.4111 67.5884 75.443 60.4082 75.3513 51.6745Z" fill="white"/>
<path d="M99.0005 41.5114L98.148 47.9354C97.8537 47.854 97.5594 47.7986 97.2651 47.7683C96.9708 47.738 96.6765 47.7224 96.3822 47.7224C95.6312 47.7224 94.9157 47.8237 94.2358 48.0272C93.5558 48.2195 92.952 48.5191 92.4243 48.9253C91.9067 49.3305 91.4906 49.838 91.176 50.4477C90.8716 51.0565 90.7193 51.7718 90.7193 52.5936C90.7193 53.121 90.8006 53.5783 90.9629 53.9637C91.1354 54.349 91.3739 54.6695 91.6783 54.9223C91.9828 55.1761 92.3431 55.364 92.7592 55.4861C93.1752 55.6073 93.6319 55.6688 94.1292 55.6688C94.5047 55.6688 94.8954 55.6281 95.3013 55.5467C95.7073 55.4653 96.1082 55.3588 96.504 55.2272C96.8997 55.0955 97.2853 54.9431 97.6608 54.7708C98.0363 54.5976 98.3814 54.42 98.696 54.2373L98.0871 61.3922C97.6913 61.5957 97.26 61.7785 96.7932 61.9404C96.3365 62.0928 95.8646 62.2297 95.3775 62.3518C94.8903 62.4635 94.4032 62.5492 93.9161 62.6098C93.429 62.6713 92.9622 62.7016 92.5156 62.7016C91.2267 62.7016 90.0242 62.4635 88.9078 61.9863C87.7915 61.5091 86.8223 60.8544 86.0003 60.0222C85.1783 59.19 84.5288 58.2105 84.0518 57.0847C83.5849 55.9477 83.3516 54.7249 83.3516 53.4155C83.3516 51.68 83.6002 50.0467 84.0974 48.5139C84.5947 46.9716 85.3254 45.6215 86.2896 44.4645C87.2537 43.3075 88.4461 42.3947 89.8668 41.7245C91.2978 41.055 92.9418 40.7199 94.799 40.7199C95.4992 40.7199 96.2147 40.7762 96.9454 40.887C97.6862 40.9987 98.3712 41.2074 99.0005 41.5114ZM118.029 62.3059L110.417 62.6713L110.357 56.2473H106.855L106.642 62.9147H99.8225L100.401 41.5114L107.647 41.8466L107.19 52.7764H110.57L110.6 41.3287L117.542 41.5114L118.029 62.3059ZM138.671 61.6053L131.12 62.5795L130.207 59.1398H126.736L125.975 62.5795L118.211 61.8183L124.27 41.5417L132.734 41.1157L138.671 61.6053ZM129.659 54.4815L128.502 49.1842L127.376 54.4815H129.659ZM146.937 41.4811L145.871 62.2141L139.447 62.5492L138.838 41.9072L146.937 41.4811ZM167.076 55.2116C167.076 56.359 167.061 57.4952 167.031 58.6219C167.011 59.7382 166.975 60.8648 166.924 62.001L158.156 61.8495C158.461 60.0525 158.724 58.2616 158.947 56.4751C159.171 54.679 159.282 52.8673 159.282 51.0409C159.282 50.9093 159.277 50.6962 159.267 50.4018C159.256 50.1073 159.237 49.7774 159.206 49.412C159.176 49.037 159.13 48.6559 159.069 48.2706C159.018 47.8748 158.942 47.5145 158.841 47.1898C158.75 46.865 158.633 46.6009 158.491 46.3983C158.358 46.1852 158.196 46.0787 158.003 46.0787C157.659 46.0787 157.364 46.18 157.121 46.3827C156.887 46.5862 156.689 46.8495 156.527 47.1742C156.375 47.4894 156.253 47.8445 156.162 48.2402C156.07 48.636 155.999 49.0318 155.949 49.4275C155.908 49.8233 155.877 50.1983 155.857 50.5542C155.847 50.8989 155.842 51.1829 155.842 51.4064C155.791 53.2024 155.751 54.989 155.72 56.7643C155.69 58.531 155.649 60.3167 155.598 62.1231L147.835 62.4583C148.038 58.8756 148.231 55.3138 148.413 51.7718C148.606 48.2299 148.758 44.668 148.87 41.0853L156.055 40.7199L155.994 43.156C156.278 42.8104 156.583 42.4857 156.908 42.1817C157.242 41.8769 157.598 41.6179 157.973 41.4049C158.349 41.1815 158.745 41.0091 159.16 40.887C159.586 40.7554 160.033 40.6896 160.5 40.6896C161.363 40.6896 162.119 40.8316 162.768 41.1157C163.418 41.3997 163.976 41.7859 164.443 42.2726C164.91 42.7602 165.3 43.3387 165.615 44.0081C165.93 44.668 166.184 45.3729 166.376 46.1237C166.569 46.8754 166.716 47.6618 166.818 48.4836C166.919 49.295 166.985 50.097 167.015 50.8885C167.056 51.68 167.076 52.4464 167.076 53.1877C167.076 53.9282 167.076 54.6028 167.076 55.2116ZM182.832 41.4811L181.158 62.2141L174.734 62.5492V41.9072L182.832 41.4811ZM210.506 52.5936C210.506 54.0451 210.461 55.4913 210.37 56.9323C210.278 58.3733 210.171 59.8196 210.05 61.271L202.226 61.6356C202.459 59.8698 202.667 58.104 202.849 56.3382C203.042 54.5621 203.138 52.7868 203.138 51.0106C203.138 50.8989 203.133 50.7058 203.124 50.4321C203.113 50.1481 203.093 49.8285 203.062 49.4734C203.042 49.1175 203.007 48.7521 202.956 48.3771C202.916 47.9917 202.854 47.641 202.773 47.3266C202.702 47.0019 202.611 46.7377 202.499 46.5351C202.388 46.3324 202.256 46.2303 202.104 46.2303C201.749 46.2303 201.47 46.368 201.266 46.6416C201.064 46.9057 200.911 47.2253 200.81 47.6003C200.718 47.9761 200.663 48.3615 200.643 48.7572C200.622 49.1435 200.612 49.4579 200.612 49.7012C200.612 50.1273 200.622 50.5542 200.643 50.9803C200.663 51.4064 200.673 51.8428 200.673 52.2888C200.673 53.8623 200.632 55.4298 200.551 56.9929C200.48 58.5561 200.389 60.1235 200.277 61.6971L193.062 61.9707C193.295 60.2049 193.498 58.4444 193.67 56.689C193.853 54.9223 193.944 53.1522 193.944 51.376C193.944 51.2643 193.939 51.0608 193.929 50.7673C193.919 50.4728 193.898 50.1429 193.868 49.7774C193.848 49.412 193.813 49.0318 193.761 48.636C193.711 48.2402 193.645 47.88 193.564 47.5553C193.493 47.2201 193.401 46.9464 193.289 46.7325C193.178 46.5195 193.041 46.413 192.879 46.413C192.625 46.413 192.412 46.5143 192.239 46.7178C192.067 46.9109 191.925 47.1638 191.813 47.479C191.712 47.7934 191.63 48.1433 191.57 48.5295C191.518 48.9045 191.479 49.2751 191.447 49.6406C191.428 50.006 191.412 50.3455 191.402 50.6607C191.402 50.9647 191.397 51.1933 191.387 51.3457L191.052 62.4583H183.38C183.542 60.7427 183.705 59.0229 183.866 57.2978C184.04 55.5718 184.187 53.8519 184.308 52.1373C184.441 50.4113 184.547 48.6862 184.628 46.9612C184.709 45.2361 184.75 43.511 184.75 41.7859L191.996 41.4811L191.965 43.2469C192.189 42.9628 192.443 42.6788 192.727 42.3947C193.011 42.1003 193.31 41.8414 193.625 41.6179C193.949 41.385 194.29 41.1971 194.645 41.055C195.01 40.913 195.385 40.842 195.771 40.842C196.269 40.842 196.714 40.8827 197.11 40.9632C197.506 41.0342 197.862 41.1615 198.176 41.3443C198.501 41.527 198.785 41.7807 199.028 42.1055C199.273 42.4198 199.486 42.8208 199.668 43.3075C199.993 42.9524 200.318 42.6225 200.643 42.3185C200.977 42.0137 201.328 41.7548 201.692 41.5417C202.058 41.3183 202.453 41.146 202.88 41.0247C203.307 40.9026 203.778 40.842 204.295 40.842C205.28 40.842 206.118 41.0342 206.808 41.4205C207.498 41.7955 208.071 42.2977 208.528 42.9273C208.994 43.556 209.355 44.2774 209.608 45.0889C209.873 45.9012 210.07 46.7429 210.202 47.6159C210.334 48.4888 210.416 49.3565 210.446 50.2191C210.487 51.0816 210.506 51.8731 210.506 52.5936ZM229.642 48.8794C229.642 49.864 229.494 50.7369 229.2 51.4973C228.905 52.2585 228.5 52.9288 227.982 53.5073C227.475 54.0754 226.876 54.5577 226.186 54.9535C225.496 55.3389 224.755 55.6584 223.963 55.9122C223.182 56.1555 222.37 56.3382 221.528 56.4603C220.685 56.5721 219.858 56.6327 219.047 56.6431V63.1277H211.953C211.953 61.9707 211.953 60.844 211.953 59.7486C211.963 58.6522 211.968 57.5662 211.968 56.4907C211.978 55.4047 211.983 54.3135 211.983 53.218C211.993 52.1217 212.004 50.9898 212.013 49.8233C212.034 48.5849 212.039 47.3465 212.029 46.109C212.018 44.8706 212.044 43.6227 212.105 42.3644C213.404 41.9782 214.703 41.6889 216.002 41.4967C217.301 41.3036 218.641 41.2075 220.02 41.2075C220.802 41.2075 221.583 41.2733 222.365 41.4049C223.147 41.527 223.892 41.7245 224.603 41.999C225.324 42.2726 225.988 42.6173 226.597 43.0338C227.216 43.44 227.749 43.9267 228.195 44.4948C228.642 45.0638 228.992 45.7133 229.246 46.4433C229.51 47.1742 229.642 47.9865 229.642 48.8794ZM222.882 49.3972C222.882 48.7373 222.68 48.2247 222.274 47.8592C221.878 47.4842 221.36 47.2963 220.721 47.2963C220.508 47.2963 220.284 47.3162 220.052 47.3569C219.828 47.3872 219.615 47.4279 219.412 47.479L219.229 51.9242C219.371 51.9441 219.509 51.9545 219.64 51.9545C219.772 51.9545 219.909 51.9545 220.052 51.9545C220.417 51.9545 220.767 51.893 221.102 51.7718C221.447 51.6497 221.751 51.4774 222.015 51.2539C222.279 51.021 222.487 50.7517 222.639 50.4477C222.801 50.1325 222.882 49.7826 222.882 49.3972ZM248.305 61.6053L240.754 62.5795L239.84 59.1398H236.37L235.608 62.5795L227.846 61.8183L233.904 41.5417L242.367 41.1157L248.305 61.6053ZM239.292 54.4815L238.135 49.1842L237.01 54.4815H239.292ZM262.751 42.1202L262.202 48.5442C261.909 48.4628 261.62 48.4074 261.336 48.3771C261.051 48.3468 260.761 48.3312 260.468 48.3312C259.747 48.3312 259.057 48.423 258.397 48.6057C257.748 48.7884 257.169 49.0673 256.662 49.4423C256.165 49.8181 255.764 50.2953 255.459 50.8738C255.165 51.4419 255.018 52.1165 255.018 52.8985C255.018 53.4666 255.099 53.9637 255.261 54.3897C255.434 54.8063 255.672 55.1562 255.977 55.4402C256.291 55.7147 256.667 55.9226 257.103 56.0646C257.549 56.2066 258.042 56.2776 258.58 56.2776C258.955 56.2776 259.341 56.2421 259.737 56.1711C260.133 56.0897 260.528 55.9832 260.924 55.8515C261.32 55.719 261.7 55.5675 262.066 55.3943C262.431 55.222 262.771 55.0392 263.086 54.847L262.842 62.001C262.447 62.2045 262.021 62.3873 261.563 62.5492C261.107 62.7016 260.635 62.8333 260.147 62.945C259.671 63.0671 259.189 63.158 258.702 63.2195C258.225 63.2801 257.768 63.3104 257.331 63.3104C255.89 63.3104 254.576 63.0411 253.389 62.5033C252.211 61.9655 251.196 61.2355 250.344 60.3115C249.502 59.3779 248.848 58.2971 248.381 57.0691C247.913 55.8412 247.68 54.5318 247.68 53.1418C247.68 51.4774 247.913 49.9246 248.381 48.4836C248.857 47.0426 249.553 45.7938 250.466 44.739C251.389 43.6729 252.527 42.8407 253.876 42.2423C255.236 41.6335 256.793 41.3287 258.55 41.3287C259.249 41.3287 259.96 41.385 260.681 41.4967C261.401 41.6075 262.092 41.8163 262.751 42.1202ZM280.333 41.4508L280.181 47.9051L275.644 48.0878L275.096 62.2141L268.672 62.5492L268.094 48.423L263.558 48.6663L263.74 41.4811L280.333 41.4508Z" fill="white"/>
</svg>
