<svg width="294" height="104" viewBox="0 0 294 104" fill="none" xmlns="http://www.w3.org/2000/svg">
<path d="M76.4978 34.2273C70.8623 28.5918 63.8333 31.8792 61.0232 34.2273L52.7085 25.9126C54.8642 23.9879 60.3996 20.1154 65.2961 20.023C70.1925 19.9306 72.7255 20.1385 73.3798 20.254C77.7681 20.8314 84.9511 24.2958 88.7389 31.2247C92.5267 38.1537 92.2419 44.0432 91.626 46.1219C91.3181 49.1245 89.1777 56.3305 83.0803 61.1346C84.312 62.5973 86.7757 66.5853 86.7757 70.8351V84H75.343V71.4125C75.343 67.8593 71.5986 66.4236 69.253 66.059C69.028 66.0405 68.8245 66.0153 68.6451 65.9848C66.5279 66.1772 62.2935 67.5323 62.2935 71.4125V84H51.0918V69.6802C51.0918 63.9523 56.096 59.2099 58.5981 57.5546C59.599 56.6308 63.125 54.7831 69.2225 54.7831C75.3199 54.7831 78.6151 50.1638 79.5004 47.8541C80.8476 45.66 82.1333 39.8628 76.4978 34.2273Z" fill="url(#paint0_linear_198_4408)"/>
<path d="M104.079 65.709V38.9694H115.653C118.047 38.9694 120.11 39.3641 121.841 40.1536C123.573 40.9176 124.91 42.0253 125.852 43.4769C126.795 44.9285 127.266 46.6602 127.266 48.672C127.266 50.6584 126.795 52.3774 125.852 53.829C124.91 55.2551 123.573 56.3501 121.841 57.1141C120.11 57.8781 118.047 58.2601 115.653 58.2601H107.517L110.267 55.5479V65.709H104.079ZM121.077 65.709L114.393 56.0063H121.001L127.762 65.709H121.077ZM110.267 56.2355L107.517 53.3324H115.309C117.219 53.3324 118.645 52.9249 119.588 52.11C120.53 51.2696 121.001 50.1236 121.001 48.672C121.001 47.195 120.53 46.049 119.588 45.2341C118.645 44.4192 117.219 44.0117 115.309 44.0117H107.517L110.267 41.0704V56.2355ZM143.404 65.709V61.698L143.022 60.8195V53.638C143.022 52.3647 142.627 51.3715 141.838 50.6584C141.074 49.9454 139.89 49.5888 138.285 49.5888C137.19 49.5888 136.108 49.7671 135.038 50.1236C133.994 50.4547 133.103 50.9131 132.364 51.4988L130.225 47.3351C131.346 46.5456 132.695 45.9344 134.274 45.5015C135.853 45.0686 137.457 44.8521 139.087 44.8521C142.22 44.8521 144.652 45.5906 146.383 47.0677C148.115 48.5447 148.981 50.8494 148.981 53.9818V65.709H143.404ZM137.139 66.0146C135.535 66.0146 134.16 65.7472 133.014 65.2124C131.868 64.6521 130.989 63.9009 130.378 62.9586C129.767 62.0164 129.461 60.9595 129.461 59.7881C129.461 58.5657 129.754 57.4961 130.34 56.5793C130.951 55.6625 131.906 54.9495 133.205 54.4402C134.503 53.9054 136.197 53.638 138.285 53.638H143.748V57.1141H138.935C137.534 57.1141 136.566 57.3433 136.031 57.8017C135.522 58.2601 135.267 58.8331 135.267 59.5207C135.267 60.2847 135.56 60.8959 136.146 61.3543C136.757 61.7872 137.585 62.0036 138.629 62.0036C139.622 62.0036 140.513 61.7744 141.303 61.3161C142.092 60.8322 142.665 60.1319 143.022 59.2151L143.939 61.9654C143.506 63.2897 142.716 64.2956 141.57 64.9832C140.424 65.6708 138.947 66.0146 137.139 66.0146ZM162.584 66.0146C160.648 66.0146 158.904 65.5817 157.35 64.7158C155.797 63.8245 154.562 62.5894 153.645 61.0105C152.754 59.4315 152.308 57.5725 152.308 55.4333C152.308 53.2687 152.754 51.3969 153.645 49.818C154.562 48.2391 155.797 47.0167 157.35 46.1509C158.904 45.285 160.648 44.8521 162.584 44.8521C164.315 44.8521 165.831 45.2341 167.129 45.9981C168.428 46.7621 169.434 47.9208 170.147 49.4742C170.86 51.0277 171.217 53.014 171.217 55.4333C171.217 57.8272 170.873 59.8135 170.185 61.3924C169.498 62.9459 168.504 64.1046 167.206 64.8686C165.932 65.6326 164.392 66.0146 162.584 66.0146ZM163.615 61.1251C164.583 61.1251 165.461 60.8959 166.251 60.4375C167.04 59.9791 167.664 59.3297 168.122 58.4893C168.606 57.6234 168.848 56.6048 168.848 55.4333C168.848 54.2364 168.606 53.2178 168.122 52.3774C167.664 51.537 167.04 50.8876 166.251 50.4292C165.461 49.9708 164.583 49.7416 163.615 49.7416C162.622 49.7416 161.73 49.9708 160.941 50.4292C160.152 50.8876 159.515 51.537 159.031 52.3774C158.573 53.2178 158.343 54.2364 158.343 55.4333C158.343 56.6048 158.573 57.6234 159.031 58.4893C159.515 59.3297 160.152 59.9791 160.941 60.4375C161.73 60.8959 162.622 61.1251 163.615 61.1251ZM169.001 65.709V61.507L169.116 55.3951L168.734 49.3214V37.365H174.693V65.709H169.001ZM179.444 65.709V45.1577H185.403V65.709H179.444ZM182.424 42.2927C181.329 42.2927 180.437 41.9744 179.75 41.3378C179.062 40.7011 178.718 39.9116 178.718 38.9694C178.718 38.0271 179.062 37.2377 179.75 36.601C180.437 35.9644 181.329 35.646 182.424 35.646C183.519 35.646 184.41 35.9516 185.098 36.5628C185.785 37.1486 186.129 37.9125 186.129 38.8548C186.129 39.848 185.785 40.6756 185.098 41.3378C184.436 41.9744 183.544 42.2927 182.424 42.2927ZM197.084 66.0146C195.327 66.0146 193.633 65.8108 192.003 65.4034C190.399 64.9705 189.126 64.4357 188.183 63.799L190.17 59.5207C191.112 60.1064 192.22 60.5903 193.493 60.9723C194.792 61.3288 196.065 61.507 197.313 61.507C198.688 61.507 199.656 61.3415 200.216 61.0105C200.802 60.6794 201.095 60.221 201.095 59.6353C201.095 59.1514 200.866 58.7949 200.407 58.5657C199.974 58.311 199.389 58.12 198.65 57.9927C197.912 57.8654 197.097 57.738 196.205 57.6107C195.339 57.4834 194.461 57.3178 193.57 57.1141C192.678 56.8849 191.863 56.5539 191.125 56.1209C190.386 55.688 189.788 55.1023 189.329 54.3638C188.896 53.6252 188.68 52.6702 188.68 51.4988C188.68 50.2 189.049 49.054 189.788 48.0609C190.552 47.0677 191.647 46.2909 193.073 45.7307C194.499 45.145 196.205 44.8521 198.192 44.8521C199.592 44.8521 201.018 45.0049 202.47 45.3105C203.922 45.6161 205.131 46.0617 206.099 46.6475L204.113 50.8876C203.119 50.3019 202.113 49.9072 201.095 49.7034C200.102 49.4742 199.134 49.3596 198.192 49.3596C196.867 49.3596 195.9 49.5379 195.289 49.8944C194.677 50.251 194.372 50.7093 194.372 51.2696C194.372 51.7789 194.588 52.1609 195.021 52.4156C195.48 52.6702 196.078 52.874 196.817 53.0268C197.555 53.1796 198.357 53.3196 199.223 53.447C200.114 53.5488 201.006 53.7144 201.897 53.9436C202.788 54.1728 203.591 54.5038 204.304 54.9367C205.042 55.3442 205.641 55.9172 206.099 56.6557C206.557 57.3688 206.787 58.311 206.787 59.4825C206.787 60.7558 206.405 61.889 205.641 62.8822C204.877 63.8499 203.769 64.6139 202.317 65.1742C200.891 65.7345 199.147 66.0146 197.084 66.0146ZM222.19 44.8521C223.82 44.8521 225.272 45.1832 226.545 45.8453C227.844 46.4819 228.863 47.4751 229.601 48.8248C230.34 50.1491 230.709 51.8553 230.709 53.9436V65.709H224.75V54.8603C224.75 53.205 224.381 51.9827 223.642 51.1932C222.929 50.4037 221.91 50.009 220.586 50.009C219.644 50.009 218.791 50.2128 218.027 50.6202C217.288 51.0022 216.702 51.6007 216.27 52.4156C215.862 53.2305 215.658 54.2746 215.658 55.5479V65.709H209.699V37.365H215.658V50.8494L214.321 49.1304C215.06 47.7553 216.117 46.6984 217.492 45.9599C218.867 45.2214 220.433 44.8521 222.19 44.8521ZM237.6 66.0146C236.582 66.0146 235.703 65.6708 234.965 64.9832C234.252 64.2701 233.895 63.3661 233.895 62.271C233.895 61.176 234.252 60.2974 234.965 59.6353C235.703 58.9477 236.582 58.6039 237.6 58.6039C238.644 58.6039 239.523 58.9477 240.236 59.6353C240.949 60.2974 241.306 61.176 241.306 62.271C241.306 63.3661 240.949 64.2701 240.236 64.9832C239.523 65.6708 238.644 66.0146 237.6 66.0146Z" fill="#E7EEEB"/>
<defs>
<linearGradient id="paint0_linear_198_4408" x1="71.6476" y1="84.1155" x2="71.6476" y2="19.9075" gradientUnits="userSpaceOnUse">
<stop stop-color="#E7EEEB" stop-opacity="0"/>
<stop offset="0.133626" stop-color="#E7EEEB" stop-opacity="0.2"/>
<stop offset="0.509233" stop-color="#E7EEEB" stop-opacity="0.96"/>
<stop offset="0.988331" stop-color="#E7EEEB" stop-opacity="0.05"/>
</linearGradient>
</defs>
</svg>
